<?xml version="1.0" standalone="no"?>
<!DOCTYPE svg PUBLIC "-//W3C//DTD SVG 1.1//EN" "http://www.w3.org/Graphics/SVG/1.1/DTD/svg11.dtd" >
<svg xmlns="http://www.w3.org/2000/svg" xmlns:xlink="http://www.w3.org/1999/xlink" version="1.1">
<metadata>
Created by FontForge 20191125 at Thu Oct 22 01:21:47 2020
 By convertio
Copyright \(c\) 2020 by Beno_t Bodhuin. All rights reserved.
</metadata>
<defs>
<font id="BallPill-medium" horiz-adv-x="640" >
  <font-face 
    font-family="BallPill medium"
    font-weight="500"
    font-stretch="normal"
    units-per-em="1000"
    panose-1="0 0 6 0 0 0 0 0 0 0"
    ascent="800"
    descent="-200"
    x-height="630"
    cap-height="860"
    bbox="-625 -310 1765 1230"
    underline-thickness="130"
    underline-position="-165"
    unicode-range="U+0020-2265"
  />
<missing-glyph horiz-adv-x="700" 
d="M600 860v-1090h-500v1090h500zM470 20v590c0 72 -48 120 -120 120s-120 -48 -120 -120v-590c0 -72 48 -120 120 -120s120 48 120 120z" />
    <glyph glyph-name=".notdef" horiz-adv-x="700" 
d="M600 860v-1090h-500v1090h500zM470 20v590c0 72 -48 120 -120 120s-120 -48 -120 -120v-590c0 -72 48 -120 120 -120s120 48 120 120z" />
    <glyph glyph-name="space" unicode=" " horiz-adv-x="340" 
 />
    <glyph glyph-name="A" unicode="A" horiz-adv-x="700" 
d="M523 860l147 -860h-132l-50 285c-14 72 -68 120 -138 120s-124 -48 -137 -120l-51 -285h-132l148 860h345zM435 605v40c0 51 -34 85 -85 85s-85 -34 -85 -85v-40c0 -51 34 -85 85 -85s85 34 85 85z" />
    <glyph glyph-name="Aacute" unicode="&#xc1;" horiz-adv-x="700" 
d="M358 1170h115v-50c0 -111 -74 -185 -185 -185h-110v115h110c42 0 70 28 70 70v50zM523 860l147 -860h-132l-50 285c-14 72 -68 120 -138 120s-124 -48 -137 -120l-51 -285h-132l148 860h345zM435 605v40c0 51 -34 85 -85 85s-85 -34 -85 -85v-40c0 -51 34 -85 85 -85
s85 34 85 85z" />
    <glyph glyph-name="Abreve" unicode="&#x102;" horiz-adv-x="700" 
d="M405 1090h115c0 -102 -68 -170 -170 -170s-170 68 -170 170h115c0 -33 22 -55 55 -55s55 22 55 55zM523 860l147 -860h-132l-50 285c-14 72 -68 120 -138 120s-124 -48 -137 -120l-51 -285h-132l148 860h345zM435 605v40c0 51 -34 85 -85 85s-85 -34 -85 -85v-40
c0 -51 34 -85 85 -85s85 34 85 85z" />
    <glyph glyph-name="Acircumflex" unicode="&#xc2;" horiz-adv-x="700" 
d="M468 1170l67 -235h-120l-32 113c-4 13 -17 22 -33 22s-29 -9 -32 -22l-33 -113h-120l67 235h236zM523 860l147 -860h-132l-50 285c-14 72 -68 120 -138 120s-124 -48 -137 -120l-51 -285h-132l148 860h345zM435 605v40c0 51 -34 85 -85 85s-85 -34 -85 -85v-40
c0 -51 34 -85 85 -85s85 34 85 85z" />
    <glyph glyph-name="Adieresis" unicode="&#xc4;" horiz-adv-x="700" 
d="M305 1090v-120h-150v120h150zM545 1090v-120h-150v120h150zM523 860l147 -860h-132l-50 285c-14 72 -68 120 -138 120s-124 -48 -137 -120l-51 -285h-132l148 860h345zM435 605v40c0 51 -34 85 -85 85s-85 -34 -85 -85v-40c0 -51 34 -85 85 -85s85 34 85 85z" />
    <glyph glyph-name="Agrave" unicode="&#xc0;" horiz-adv-x="700" 
d="M343 1170v-50c0 -42 28 -70 70 -70h110v-115h-110c-111 0 -185 74 -185 185v50h115zM523 860l147 -860h-132l-50 285c-14 72 -68 120 -138 120s-124 -48 -137 -120l-51 -285h-132l148 860h345zM435 605v40c0 51 -34 85 -85 85s-85 -34 -85 -85v-40c0 -51 34 -85 85 -85
s85 34 85 85z" />
    <glyph glyph-name="Amacron" unicode="&#x100;" horiz-adv-x="700" 
d="M550 955h-400v115h400v-115zM523 860l147 -860h-132l-50 285c-14 72 -68 120 -138 120s-124 -48 -137 -120l-51 -285h-132l148 860h345zM435 605v40c0 51 -34 85 -85 85s-85 -34 -85 -85v-40c0 -51 34 -85 85 -85s85 34 85 85z" />
    <glyph glyph-name="Aogonek" unicode="&#x104;" horiz-adv-x="700" 
d="M730 -115h60v-115h-60c-91 0 -162 63 -179 157l-63 358c-13 72 -68 120 -138 120s-124 -48 -137 -120l-51 -285h-132l148 860h345l159 -933c5 -25 24 -42 48 -42zM435 605v40c0 51 -34 85 -85 85s-85 -34 -85 -85v-40c0 -51 34 -85 85 -85s85 34 85 85z" />
    <glyph glyph-name="Aring" unicode="&#xc5;" horiz-adv-x="700" 
d="M350 1230c93 0 155 -62 155 -155s-62 -155 -155 -155s-155 62 -155 155s62 155 155 155zM350 1123c-28 0 -47 -19 -47 -48c0 -28 19 -47 47 -47c29 0 48 19 48 47c0 29 -19 48 -48 48zM523 860l147 -860h-132l-50 285c-14 72 -68 120 -138 120s-124 -48 -137 -120
l-51 -285h-132l148 860h345zM435 605v40c0 51 -34 85 -85 85s-85 -34 -85 -85v-40c0 -51 34 -85 85 -85s85 34 85 85z" />
    <glyph glyph-name="Atilde" unicode="&#xc3;" horiz-adv-x="700" 
d="M558 1170h115v-97c0 -92 -61 -153 -153 -153c-91 0 -152 61 -152 153v5c0 22 -15 37 -38 37c-22 0 -37 -15 -37 -37v-143h-115v143c0 91 61 152 152 152c92 0 153 -61 153 -152v-5c0 -23 15 -38 37 -38c23 0 38 15 38 38v97zM178 860h345l147 -860h-132l-50 285
c-14 72 -68 120 -138 120s-124 -48 -137 -120l-51 -285h-132zM435 605v40c0 51 -34 85 -85 85s-85 -34 -85 -85v-40c0 -51 34 -85 85 -85s85 34 85 85z" />
    <glyph glyph-name="AE" unicode="&#xc6;" horiz-adv-x="965" 
d="M660 730c-66 0 -110 -44 -110 -110s44 -110 110 -110h235v-130h-235c-57 0 -95 -38 -95 -95v-60c0 -57 38 -95 95 -95h235v-130h-460v305c0 60 -38 100 -95 100c-66 0 -119 -51 -132 -127l-51 -278h-132l153 860h717v-130h-235zM435 605v40c0 51 -34 85 -85 85
s-85 -34 -85 -85v-40c0 -51 34 -85 85 -85s85 34 85 85z" />
    <glyph glyph-name="B" unicode="B" horiz-adv-x="870" 
d="M575 510c153 0 255 -102 255 -255s-102 -255 -255 -255h-480v860h480v-350zM335 745c-75 0 -125 -50 -125 -125s50 -125 125 -125s125 50 125 125s-50 125 -125 125zM335 130h240c75 0 125 50 125 125s-50 125 -125 125h-240c-75 0 -125 -50 -125 -125s50 -125 125 -125z
" />
    <glyph glyph-name="C" unicode="C" horiz-adv-x="695" 
d="M350 115c90 0 150 60 150 150h130c0 -168 -112 -280 -280 -280s-280 112 -280 280v330c0 168 112 280 280 280s280 -112 280 -280h-130c0 90 -60 150 -150 150s-150 -60 -150 -150v-330c0 -90 60 -150 150 -150z" />
    <glyph glyph-name="Cacute" unicode="&#x106;" horiz-adv-x="695" 
d="M420 1170h115v-50c0 -111 -74 -185 -185 -185h-110v115h110c42 0 70 28 70 70v50zM350 115c90 0 150 60 150 150h130c0 -168 -112 -280 -280 -280s-280 112 -280 280v330c0 168 112 280 280 280s280 -112 280 -280h-130c0 90 -60 150 -150 150s-150 -60 -150 -150v-330
c0 -90 60 -150 150 -150z" />
    <glyph glyph-name="Ccaron" unicode="&#x10c;" horiz-adv-x="695" 
d="M468 935h-236l-67 235h120l33 -112c3 -14 16 -23 32 -23s29 9 33 23l32 112h120zM350 115c90 0 150 60 150 150h130c0 -168 -112 -280 -280 -280s-280 112 -280 280v330c0 168 112 280 280 280s280 -112 280 -280h-130c0 90 -60 150 -150 150s-150 -60 -150 -150v-330
c0 -90 60 -150 150 -150z" />
    <glyph glyph-name="Ccedilla" unicode="&#xc7;" horiz-adv-x="695" 
d="M350 115c90 0 150 60 150 150h130c0 -148 -87 -252 -222 -275v-220h-220v115h60c27 0 45 18 45 45v60c-136 22 -223 127 -223 275v330c0 168 112 280 280 280s280 -112 280 -280h-130c0 90 -60 150 -150 150s-150 -60 -150 -150v-330c0 -90 60 -150 150 -150z" />
    <glyph glyph-name="Cdotaccent" unicode="&#x10a;" horiz-adv-x="695" 
d="M425 1090v-120h-150v120h150zM350 115c90 0 150 60 150 150h130c0 -168 -112 -280 -280 -280s-280 112 -280 280v330c0 168 112 280 280 280s280 -112 280 -280h-130c0 90 -60 150 -150 150s-150 -60 -150 -150v-330c0 -90 60 -150 150 -150z" />
    <glyph glyph-name="D" unicode="D" horiz-adv-x="775" 
d="M340 860c222 0 370 -148 370 -370v-120c0 -222 -148 -370 -370 -370h-250v860h250zM580 370v120c0 144 -96 240 -240 240c-72 0 -120 -48 -120 -120v-360c0 -72 48 -120 120 -120c144 0 240 96 240 240z" />
    <glyph glyph-name="Eth" unicode="&#xd0;" horiz-adv-x="845" 
d="M410 860c222 0 370 -148 370 -370v-120c0 -222 -148 -370 -370 -370h-250v318c0 39 -26 65 -65 65h-90v115h90c39 0 65 26 65 65v297h250zM650 370v120c0 144 -96 240 -240 240c-72 0 -120 -48 -120 -120v-47c0 -39 26 -65 65 -65h120v-115h-120c-39 0 -65 -26 -65 -65
v-68c0 -72 48 -120 120 -120c144 0 240 96 240 240z" />
    <glyph glyph-name="Dcaron" unicode="&#x10e;" horiz-adv-x="775" 
d="M418 935h-236l-67 235h120l33 -112c3 -14 16 -23 32 -23s29 9 33 23l32 112h120zM340 860c222 0 370 -148 370 -370v-120c0 -222 -148 -370 -370 -370h-250v860h250zM580 370v120c0 144 -96 240 -240 240c-72 0 -120 -48 -120 -120v-360c0 -72 48 -120 120 -120
c144 0 240 96 240 240z" />
    <glyph glyph-name="Dcroat" unicode="&#x110;" horiz-adv-x="845" 
d="M410 860c222 0 370 -148 370 -370v-120c0 -222 -148 -370 -370 -370h-250v318c0 39 -26 65 -65 65h-90v115h90c39 0 65 26 65 65v297h250zM650 370v120c0 144 -96 240 -240 240c-72 0 -120 -48 -120 -120v-47c0 -39 26 -65 65 -65h120v-115h-120c-39 0 -65 -26 -65 -65
v-68c0 -72 48 -120 120 -120c144 0 240 96 240 240z" />
    <glyph glyph-name="E" unicode="E" horiz-adv-x="645" 
d="M320 730c-66 0 -110 -44 -110 -110s44 -110 110 -110h255v-130h-255c-57 0 -95 -38 -95 -95v-60c0 -57 38 -95 95 -95h255v-130h-480v860h480v-130h-255z" />
    <glyph glyph-name="Eacute" unicode="&#xc9;" horiz-adv-x="645" 
d="M275 1170h115v-50c0 -111 -74 -185 -185 -185h-110v115h110c42 0 70 28 70 70v50zM320 730c-66 0 -110 -44 -110 -110s44 -110 110 -110h255v-130h-255c-57 0 -95 -38 -95 -95v-60c0 -57 38 -95 95 -95h255v-130h-480v860h480v-130h-255z" />
    <glyph glyph-name="Ecaron" unicode="&#x11a;" horiz-adv-x="645" 
d="M463 935h-236l-67 235h120l33 -112c3 -14 16 -23 32 -23s29 9 33 23l32 112h120zM320 730c-66 0 -110 -44 -110 -110s44 -110 110 -110h255v-130h-255c-57 0 -95 -38 -95 -95v-60c0 -57 38 -95 95 -95h255v-130h-480v860h480v-130h-255z" />
    <glyph glyph-name="Ecircumflex" unicode="&#xca;" horiz-adv-x="645" 
d="M463 1170l67 -235h-120l-32 113c-4 13 -17 22 -33 22s-29 -9 -32 -22l-33 -113h-120l67 235h236zM320 730c-66 0 -110 -44 -110 -110s44 -110 110 -110h255v-130h-255c-57 0 -95 -38 -95 -95v-60c0 -57 38 -95 95 -95h255v-130h-480v860h480v-130h-255z" />
    <glyph glyph-name="Edieresis" unicode="&#xcb;" horiz-adv-x="645" 
d="M290 1090v-120h-150v120h150zM530 1090v-120h-150v120h150zM320 730c-66 0 -110 -44 -110 -110s44 -110 110 -110h255v-130h-255c-57 0 -95 -38 -95 -95v-60c0 -57 38 -95 95 -95h255v-130h-480v860h480v-130h-255z" />
    <glyph glyph-name="Edotaccent" unicode="&#x116;" horiz-adv-x="645" 
d="M410 1090v-120h-150v120h150zM320 730c-66 0 -110 -44 -110 -110s44 -110 110 -110h255v-130h-255c-57 0 -95 -38 -95 -95v-60c0 -57 38 -95 95 -95h255v-130h-480v860h480v-130h-255z" />
    <glyph glyph-name="Egrave" unicode="&#xc8;" horiz-adv-x="645" 
d="M395 1170v-50c0 -42 28 -70 70 -70h110v-115h-110c-111 0 -185 74 -185 185v50h115zM320 730c-66 0 -110 -44 -110 -110s44 -110 110 -110h255v-130h-255c-57 0 -95 -38 -95 -95v-60c0 -57 38 -95 95 -95h255v-130h-480v860h480v-130h-255z" />
    <glyph glyph-name="Emacron" unicode="&#x112;" horiz-adv-x="645" 
d="M535 955h-400v115h400v-115zM320 730c-66 0 -110 -44 -110 -110s44 -110 110 -110h255v-130h-255c-57 0 -95 -38 -95 -95v-60c0 -57 38 -95 95 -95h255v-130h-480v860h480v-130h-255z" />
    <glyph glyph-name="Eogonek" unicode="&#x118;" horiz-adv-x="645" 
d="M620 -115h60v-115h-220v230h-365v860h480v-130h-255c-66 0 -110 -44 -110 -110s44 -110 110 -110h255v-130h-255c-57 0 -95 -38 -95 -95v-60c0 -57 38 -95 95 -95h255v-200c0 -27 18 -45 45 -45z" />
    <glyph glyph-name="F" unicode="F" horiz-adv-x="580" 
d="M310 730c-60 0 -100 -40 -100 -100s40 -100 100 -100h205v-130h-205c-51 0 -85 -34 -85 -85v-315h-130v860h420v-130h-205z" />
    <glyph glyph-name="G" unicode="G" horiz-adv-x="725" 
d="M355 535h280v-535h-550v600c0 165 110 275 275 275s275 -110 275 -275h-130c0 87 -58 145 -145 145s-145 -58 -145 -145v-337c0 -89 61 -148 153 -148c91 0 152 61 152 153c0 91 -61 152 -152 152h-13v115z" />
    <glyph glyph-name="Gbreve" unicode="&#x11e;" horiz-adv-x="725" 
d="M415 1090h115c0 -102 -68 -170 -170 -170s-170 68 -170 170h115c0 -33 22 -55 55 -55s55 22 55 55zM355 535h280v-535h-550v600c0 165 110 275 275 275s275 -110 275 -275h-130c0 87 -58 145 -145 145s-145 -58 -145 -145v-337c0 -89 61 -148 153 -148
c91 0 152 61 152 153c0 91 -61 152 -152 152h-13v115z" />
    <glyph glyph-name="uni0122" unicode="&#x122;" horiz-adv-x="725" 
d="M355 535h280v-535h-550v600c0 165 110 275 275 275s275 -110 275 -275h-130c0 87 -58 145 -145 145s-145 -58 -145 -145v-337c0 -89 61 -148 153 -148c91 0 152 61 152 153c0 91 -61 152 -152 152h-13v115zM290 -75h115v-50c0 -111 -74 -185 -185 -185h-110v115h110
c42 0 70 28 70 70v50z" />
    <glyph glyph-name="Gdotaccent" unicode="&#x120;" horiz-adv-x="725" 
d="M435 1090v-120h-150v120h150zM355 535h280v-535h-550v600c0 165 110 275 275 275s275 -110 275 -275h-130c0 87 -58 145 -145 145s-145 -58 -145 -145v-337c0 -89 61 -148 153 -148c91 0 152 61 152 153c0 91 -61 152 -152 152h-13v115z" />
    <glyph glyph-name="H" unicode="H" horiz-adv-x="810" 
d="M590 860h130v-860h-130v290c0 60 -40 100 -100 100h-170c-60 0 -100 -40 -100 -100v-290h-130v860h130v-240c0 -60 40 -100 100 -100h170c60 0 100 40 100 100v240z" />
    <glyph glyph-name="Hbar" unicode="&#x126;" horiz-adv-x="940" 
d="M870 735h65v-115h-65c-51 0 -85 -34 -85 -85v-535h-130v235c0 51 -34 85 -85 85h-200c-51 0 -85 -34 -85 -85v-235h-130v535c0 51 -34 85 -85 85h-65v115h65c51 0 85 34 85 85v40h130v-40c0 -51 34 -85 85 -85h200c51 0 85 34 85 85v40h130v-40c0 -51 34 -85 85 -85z
M570 450c51 0 85 34 85 85s-34 85 -85 85h-200c-51 0 -85 -34 -85 -85s34 -85 85 -85h200z" />
    <glyph glyph-name="I" unicode="I" horiz-adv-x="310" 
d="M220 860v-860h-130v860h130z" />
    <glyph glyph-name="Iacute" unicode="&#xcd;" horiz-adv-x="310" 
d="M270 1170h115v-50c0 -111 -74 -185 -185 -185h-110v115h110c42 0 70 28 70 70v50zM220 860v-860h-130v860h130z" />
    <glyph glyph-name="Icircumflex" unicode="&#xce;" horiz-adv-x="310" 
d="M273 1170l67 -235h-120l-32 113c-4 13 -17 22 -33 22s-29 -9 -32 -22l-33 -113h-120l67 235h236zM220 860v-860h-130v860h130z" />
    <glyph glyph-name="Idieresis" unicode="&#xcf;" horiz-adv-x="310" 
d="M110 1090v-120h-150v120h150zM350 1090v-120h-150v120h150zM220 860v-860h-130v860h130z" />
    <glyph glyph-name="Idotaccent" unicode="&#x130;" horiz-adv-x="310" 
d="M230 1090v-120h-150v120h150zM220 860v-860h-130v860h130z" />
    <glyph glyph-name="Igrave" unicode="&#xcc;" horiz-adv-x="310" 
d="M40 1170v-50c0 -42 28 -70 70 -70h110v-115h-110c-111 0 -185 74 -185 185v50h115zM220 860v-860h-130v860h130z" />
    <glyph glyph-name="Imacron" unicode="&#x12a;" horiz-adv-x="310" 
d="M355 955h-400v115h400v-115zM220 860v-860h-130v860h130z" />
    <glyph glyph-name="Iogonek" unicode="&#x12e;" horiz-adv-x="310" 
d="M265 -100h60v-130h-60c-108 0 -175 67 -175 175v915h130v-915c0 -30 15 -45 45 -45z" />
    <glyph glyph-name="J" unicode="J" horiz-adv-x="650" 
d="M565 860v-615c0 -156 -104 -260 -260 -260s-260 104 -260 260h130c0 -78 52 -130 130 -130s130 52 130 130v385c0 60 -40 100 -100 100h-160v130h390z" />
    <glyph glyph-name="K" unicode="K" horiz-adv-x="665" 
d="M510 353l130 -353h-138l-120 321c-14 36 -47 59 -82 59c-48 0 -80 -32 -80 -80v-300h-130v860h130v-270c0 -48 32 -80 80 -80c35 0 68 24 82 59l108 291h138l-118 -322c-12 -31 -19 -68 -19 -93s7 -62 19 -92z" />
    <glyph glyph-name="uni0136" unicode="&#x136;" horiz-adv-x="665" 
d="M510 353l130 -353h-138l-120 321c-14 36 -47 59 -82 59c-48 0 -80 -32 -80 -80v-300h-130v860h130v-270c0 -48 32 -80 80 -80c35 0 68 24 82 59l108 291h138l-118 -322c-12 -31 -19 -68 -19 -93s7 -62 19 -92zM105 -75h115v-50c0 -111 -74 -185 -185 -185h-110v115h110
c42 0 70 28 70 70v50z" />
    <glyph glyph-name="L" unicode="L" 
d="M220 860v-610c0 -72 48 -120 120 -120h270v-130h-520v860h130z" />
    <glyph glyph-name="Lacute" unicode="&#x139;" 
d="M270 1170h115v-50c0 -111 -74 -185 -185 -185h-110v115h110c42 0 70 28 70 70v50zM220 860v-610c0 -72 48 -120 120 -120h270v-130h-520v860h130z" />
    <glyph glyph-name="Lcaron" unicode="&#x13d;" 
d="M363 940h115v-235h-115v235zM220 860v-610c0 -72 48 -120 120 -120h270v-130h-520v860h130z" />
    <glyph glyph-name="uni013B" unicode="&#x13b;" 
d="M220 860v-610c0 -72 48 -120 120 -120h270v-130h-520v860h130zM90 -75h115v-50c0 -111 -74 -185 -185 -185h-110v115h110c42 0 70 28 70 70v50z" />
    <glyph glyph-name="Lslash" unicode="&#x141;" horiz-adv-x="710" 
d="M410 130h270v-130h-520v253c0 35 -20 56 -50 50l-105 -20v117l105 20c30 6 50 32 50 65v375h130v-347c0 -36 20 -56 50 -50l163 30v-118l-163 -30c-30 -6 -50 -32 -50 -65v-30c0 -72 48 -120 120 -120z" />
    <glyph glyph-name="M" unicode="M" horiz-adv-x="1150" 
d="M1060 860v-860h-130v670c0 45 -30 75 -75 75s-75 -30 -75 -75v-670h-410v670c0 45 -30 75 -75 75s-75 -30 -75 -75v-670h-130v860h410v-670c0 -45 30 -75 75 -75s75 30 75 75v670h410z" />
    <glyph glyph-name="N" unicode="N" horiz-adv-x="890" 
d="M670 860h130v-860h-370l-79 674c-3 34 -28 56 -61 56c-42 0 -70 -28 -70 -70v-660h-130v860h370l79 -674c4 -33 28 -56 61 -56c42 0 70 28 70 70v660z" />
    <glyph glyph-name="Nacute" unicode="&#x143;" horiz-adv-x="890" 
d="M270 1170h115v-50c0 -111 -74 -185 -185 -185h-110v115h110c42 0 70 28 70 70v50zM670 860h130v-860h-370l-79 674c-3 34 -28 56 -61 56c-42 0 -70 -28 -70 -70v-660h-130v860h370l79 -674c4 -33 28 -56 61 -56c42 0 70 28 70 70v660z" />
    <glyph glyph-name="Ncaron" unicode="&#x147;" horiz-adv-x="890" 
d="M408 935h-236l-67 235h120l33 -112c3 -14 16 -23 32 -23s29 9 33 23l32 112h120zM670 860h130v-860h-370l-79 674c-3 34 -28 56 -61 56c-42 0 -70 -28 -70 -70v-660h-130v860h370l79 -674c4 -33 28 -56 61 -56c42 0 70 28 70 70v660z" />
    <glyph glyph-name="uni0145" unicode="&#x145;" horiz-adv-x="890" 
d="M670 860h130v-860h-370l-79 674c-3 34 -28 56 -61 56c-42 0 -70 -28 -70 -70v-660h-130v860h370l79 -674c4 -33 28 -56 61 -56c42 0 70 28 70 70v660zM105 -75h115v-50c0 -111 -74 -185 -185 -185h-110v115h110c42 0 70 28 70 70v50z" />
    <glyph glyph-name="Eng" unicode="&#x14a;" horiz-adv-x="890" 
d="M670 860h130v-910c0 -108 -72 -180 -180 -180h-160v130h160c30 0 50 20 50 50s-20 50 -50 50h-190l-79 674c-3 34 -28 56 -61 56c-42 0 -70 -28 -70 -70v-660h-130v860h370l79 -674c4 -33 28 -56 61 -56c42 0 70 28 70 70v660z" />
    <glyph glyph-name="Ntilde" unicode="&#xd1;" horiz-adv-x="890" 
d="M205 1078v-143h-115v143c0 91 61 152 153 152c91 0 152 -61 152 -152v-5c0 -23 15 -38 38 -38c22 0 37 15 37 38v97h115v-97c0 -92 -61 -153 -152 -153c-92 0 -153 61 -153 153v5c0 22 -15 37 -37 37c-23 0 -38 -15 -38 -37zM670 860h130v-860h-370l-79 674
c-3 34 -28 56 -61 56c-42 0 -70 -28 -70 -70v-660h-130v860h370l79 -674c4 -33 28 -56 61 -56c42 0 70 28 70 70v660z" />
    <glyph glyph-name="O" unicode="O" horiz-adv-x="700" 
d="M350 875c168 0 280 -112 280 -280v-330c0 -168 -112 -280 -280 -280s-280 112 -280 280v330c0 168 112 280 280 280zM500 265v330c0 90 -60 150 -150 150s-150 -60 -150 -150v-330c0 -90 60 -150 150 -150s150 60 150 150z" />
    <glyph glyph-name="Oacute" unicode="&#xd3;" horiz-adv-x="700" 
d="M420 1170h115v-50c0 -111 -74 -185 -185 -185h-110v115h110c42 0 70 28 70 70v50zM350 875c168 0 280 -112 280 -280v-330c0 -168 -112 -280 -280 -280s-280 112 -280 280v330c0 168 112 280 280 280zM500 265v330c0 90 -60 150 -150 150s-150 -60 -150 -150v-330
c0 -90 60 -150 150 -150s150 60 150 150z" />
    <glyph glyph-name="Ocircumflex" unicode="&#xd4;" horiz-adv-x="700" 
d="M468 1170l67 -235h-120l-32 113c-4 13 -17 22 -33 22s-29 -9 -32 -22l-33 -113h-120l67 235h236zM350 875c168 0 280 -112 280 -280v-330c0 -168 -112 -280 -280 -280s-280 112 -280 280v330c0 168 112 280 280 280zM500 265v330c0 90 -60 150 -150 150
s-150 -60 -150 -150v-330c0 -90 60 -150 150 -150s150 60 150 150z" />
    <glyph glyph-name="Odieresis" unicode="&#xd6;" horiz-adv-x="700" 
d="M305 1090v-120h-150v120h150zM545 1090v-120h-150v120h150zM350 875c168 0 280 -112 280 -280v-330c0 -168 -112 -280 -280 -280s-280 112 -280 280v330c0 168 112 280 280 280zM500 265v330c0 90 -60 150 -150 150s-150 -60 -150 -150v-330c0 -90 60 -150 150 -150
s150 60 150 150z" />
    <glyph glyph-name="Ograve" unicode="&#xd2;" horiz-adv-x="700" 
d="M280 1170v-50c0 -42 28 -70 70 -70h110v-115h-110c-111 0 -185 74 -185 185v50h115zM350 875c168 0 280 -112 280 -280v-330c0 -168 -112 -280 -280 -280s-280 112 -280 280v330c0 168 112 280 280 280zM500 265v330c0 90 -60 150 -150 150s-150 -60 -150 -150v-330
c0 -90 60 -150 150 -150s150 60 150 150z" />
    <glyph glyph-name="Ohungarumlaut" unicode="&#x150;" horiz-adv-x="700" 
d="M308 1170h115v-50c0 -111 -74 -185 -185 -185h-110v115h110c42 0 70 28 70 70v50zM498 1170h115v-235h-115v235zM350 875c168 0 280 -112 280 -280v-330c0 -168 -112 -280 -280 -280s-280 112 -280 280v330c0 168 112 280 280 280zM500 265v330c0 90 -60 150 -150 150
s-150 -60 -150 -150v-330c0 -90 60 -150 150 -150s150 60 150 150z" />
    <glyph glyph-name="Omacron" unicode="&#x14c;" horiz-adv-x="700" 
d="M550 955h-400v115h400v-115zM350 875c168 0 280 -112 280 -280v-330c0 -168 -112 -280 -280 -280s-280 112 -280 280v330c0 168 112 280 280 280zM500 265v330c0 90 -60 150 -150 150s-150 -60 -150 -150v-330c0 -90 60 -150 150 -150s150 60 150 150z" />
    <glyph glyph-name="Oslash" unicode="&#xd8;" horiz-adv-x="830" 
d="M755 488h70v-115h-70c-36 0 -60 -24 -60 -60v-48c0 -168 -112 -280 -280 -280s-280 112 -280 280v48c0 36 -24 60 -60 60h-70v115h70c36 0 60 24 60 60v47c0 168 112 280 280 280s280 -112 280 -280v-47c0 -36 24 -60 60 -60zM565 548v47c0 90 -60 150 -150 150
s-150 -60 -150 -150v-47c0 -36 24 -60 60 -60h175c39 0 65 24 65 60zM565 265v48c0 36 -26 60 -65 60h-175c-36 0 -60 -24 -60 -60v-48c0 -90 60 -150 150 -150s150 60 150 150z" />
    <glyph glyph-name="Otilde" unicode="&#xd5;" horiz-adv-x="700" 
d="M233 1078v-143h-115v143c0 91 61 152 152 152c92 0 153 -61 153 -152v-5c0 -23 15 -38 37 -38c23 0 38 15 38 38v97h115v-97c0 -92 -61 -153 -153 -153c-91 0 -152 61 -152 153v5c0 22 -15 37 -38 37c-22 0 -37 -15 -37 -37zM350 875c168 0 280 -112 280 -280v-330
c0 -168 -112 -280 -280 -280s-280 112 -280 280v330c0 168 112 280 280 280zM500 265v330c0 90 -60 150 -150 150s-150 -60 -150 -150v-330c0 -90 60 -150 150 -150s150 60 150 150z" />
    <glyph glyph-name="OE" unicode="&#x152;" horiz-adv-x="1030" 
d="M725 730c-66 0 -110 -44 -110 -110s44 -110 110 -110h235v-130h-235c-57 0 -95 -38 -95 -95v-60c0 -57 38 -95 95 -95h235v-130h-610c-168 0 -280 112 -280 280v300c0 168 112 280 280 280h610v-130h-235zM350 130c90 0 150 60 150 150v300c0 90 -60 150 -150 150
s-150 -60 -150 -150v-300c0 -90 60 -150 150 -150z" />
    <glyph glyph-name="P" unicode="P" 
d="M335 340h-15c-60 0 -100 -40 -100 -100v-240h-130v860h245c156 0 260 -104 260 -260s-104 -260 -260 -260zM465 600c0 78 -52 130 -130 130s-130 -52 -130 -130s52 -130 130 -130s130 52 130 130z" />
    <glyph glyph-name="Thorn" unicode="&#xde;" horiz-adv-x="635" 
d="M335 695c156 0 260 -104 260 -260s-104 -260 -260 -260h-22c-56 0 -93 -36 -93 -90v-85h-130v860h130v-75c0 -54 37 -90 93 -90h22zM465 435c0 78 -52 130 -130 130s-130 -52 -130 -130s52 -130 130 -130s130 52 130 130z" />
    <glyph glyph-name="Q" unicode="Q" horiz-adv-x="780" 
d="M350 870c168 0 280 -112 280 -280v-370c0 -54 36 -90 90 -90h45v-130h-415c-168 0 -280 112 -280 280v310c0 168 112 280 280 280zM500 280v310c0 90 -60 150 -150 150s-150 -60 -150 -150v-310c0 -90 60 -150 150 -150s150 60 150 150z" />
    <glyph glyph-name="R" unicode="R" horiz-adv-x="885" 
d="M570 510c153 0 255 -102 255 -255v-255h-130v255c0 75 -50 125 -125 125h-225c-75 0 -125 -50 -125 -125v-255h-130v860h480v-350zM330 495c75 0 125 50 125 125s-50 125 -125 125s-125 -50 -125 -125s50 -125 125 -125z" />
    <glyph glyph-name="Racute" unicode="&#x154;" horiz-adv-x="885" 
d="M270 1170h115v-50c0 -111 -74 -185 -185 -185h-110v115h110c42 0 70 28 70 70v50zM570 510c153 0 255 -102 255 -255v-255h-130v255c0 75 -50 125 -125 125h-225c-75 0 -125 -50 -125 -125v-255h-130v860h480v-350zM330 495c75 0 125 50 125 125s-50 125 -125 125
s-125 -50 -125 -125s50 -125 125 -125z" />
    <glyph glyph-name="Rcaron" unicode="&#x158;" horiz-adv-x="885" 
d="M448 935h-236l-67 235h120l33 -112c3 -14 16 -23 32 -23s29 9 33 23l32 112h120zM570 510c153 0 255 -102 255 -255v-255h-130v255c0 75 -50 125 -125 125h-225c-75 0 -125 -50 -125 -125v-255h-130v860h480v-350zM330 495c75 0 125 50 125 125s-50 125 -125 125
s-125 -50 -125 -125s50 -125 125 -125z" />
    <glyph glyph-name="uni0156" unicode="&#x156;" horiz-adv-x="885" 
d="M570 510c153 0 255 -102 255 -255v-255h-130v255c0 75 -50 125 -125 125h-225c-75 0 -125 -50 -125 -125v-255h-130v860h480v-350zM330 495c75 0 125 50 125 125s-50 125 -125 125s-125 -50 -125 -125s50 -125 125 -125zM105 -75h115v-50c0 -111 -74 -185 -185 -185h-110
v115h110c42 0 70 28 70 70v50z" />
    <glyph glyph-name="S" unicode="S" horiz-adv-x="620" 
d="M280 380c-144 0 -240 96 -240 240s96 240 240 240h260v-130h-260c-66 0 -110 -44 -110 -110s44 -110 110 -110h260v-510h-470v130h230c75 0 125 50 125 125s-50 125 -125 125h-20z" />
    <glyph glyph-name="Sacute" unicode="&#x15a;" horiz-adv-x="620" 
d="M425 1170h115v-50c0 -111 -74 -185 -185 -185h-110v115h110c42 0 70 28 70 70v50zM280 380c-144 0 -240 96 -240 240s96 240 240 240h260v-130h-260c-66 0 -110 -44 -110 -110s44 -110 110 -110h260v-510h-470v130h230c75 0 125 50 125 125s-50 125 -125 125h-20z" />
    <glyph glyph-name="Scaron" unicode="&#x160;" horiz-adv-x="620" 
d="M488 935h-236l-67 235h120l33 -112c3 -14 16 -23 32 -23s29 9 33 23l32 112h120zM280 380c-144 0 -240 96 -240 240s96 240 240 240h260v-130h-260c-66 0 -110 -44 -110 -110s44 -110 110 -110h260v-510h-470v130h230c75 0 125 50 125 125s-50 125 -125 125h-20z" />
    <glyph glyph-name="Scedilla" unicode="&#x15e;" horiz-adv-x="620" 
d="M280 730c-66 0 -110 -44 -110 -110s44 -110 110 -110h260v-510h-355v-230h-220v115h60c27 0 45 18 45 45v200h230c75 0 125 50 125 125s-50 125 -125 125h-20c-144 0 -240 96 -240 240s96 240 240 240h260v-130h-260z" />
    <glyph glyph-name="uni0218" unicode="&#x218;" horiz-adv-x="620" 
d="M280 380c-144 0 -240 96 -240 240s96 240 240 240h260v-130h-260c-66 0 -110 -44 -110 -110s44 -110 110 -110h260v-510h-470v130h230c75 0 125 50 125 125s-50 125 -125 125h-20zM70 -75h115v-50c0 -111 -74 -185 -185 -185h-110v115h110c42 0 70 28 70 70v50z" />
    <glyph glyph-name="uni1E9E" unicode="&#x1e9e;" horiz-adv-x="765" 
d="M475 400h35c120 0 200 -80 200 -200s-80 -200 -200 -200h-200v130h200c42 0 70 28 70 70s-28 70 -70 70h-200v179c0 109 66 181 165 181h40c30 0 50 20 50 50s-20 50 -50 50h-40c-159 0 -265 -112 -265 -280v-450h-130v450c0 246 158 410 395 410h205v-360h-205
c-30 0 -50 -20 -50 -50s20 -50 50 -50z" />
    <glyph glyph-name="T" unicode="T" horiz-adv-x="690" 
d="M680 860v-130h-170c-60 0 -100 -40 -100 -100v-630h-130v630c0 60 -40 100 -100 100h-170v130h670z" />
    <glyph glyph-name="Tbar" unicode="&#x166;" horiz-adv-x="690" 
d="M510 730c-60 0 -100 -40 -100 -100v-40c0 -54 36 -90 90 -90h120v-115h-120c-54 0 -90 -36 -90 -90v-295h-130v295c0 54 -36 90 -90 90h-120v115h120c54 0 90 36 90 90v40c0 60 -40 100 -100 100h-170v130h670v-130h-170z" />
    <glyph glyph-name="Tcaron" unicode="&#x164;" horiz-adv-x="690" 
d="M463 935h-236l-67 235h120l33 -112c3 -14 16 -23 32 -23s29 9 33 23l32 112h120zM680 860v-130h-170c-60 0 -100 -40 -100 -100v-630h-130v630c0 60 -40 100 -100 100h-170v130h670z" />
    <glyph glyph-name="uni0162" unicode="&#x162;" horiz-adv-x="690" 
d="M10 860h670v-130h-170c-60 0 -100 -40 -100 -100v-700c0 -99 -67 -160 -175 -160h-45v130h45c30 0 45 15 45 45v685c0 60 -40 100 -100 100h-170v130z" />
    <glyph glyph-name="uni021A" unicode="&#x21a;" horiz-adv-x="690" 
d="M680 860v-130h-170c-60 0 -100 -40 -100 -100v-630h-130v630c0 60 -40 100 -100 100h-170v130h670zM295 -75h115v-50c0 -111 -74 -185 -185 -185h-110v115h110c42 0 70 28 70 70v50z" />
    <glyph glyph-name="U" unicode="U" horiz-adv-x="730" 
d="M515 860h130v-595c0 -168 -112 -280 -280 -280s-280 112 -280 280v595h130v-595c0 -90 60 -150 150 -150s150 60 150 150v595z" />
    <glyph glyph-name="Uacute" unicode="&#xda;" horiz-adv-x="730" 
d="M515 1170h115v-50c0 -111 -74 -185 -185 -185h-110v115h110c42 0 70 28 70 70v50zM515 860h130v-595c0 -168 -112 -280 -280 -280s-280 112 -280 280v595h130v-595c0 -90 60 -150 150 -150s150 60 150 150v595z" />
    <glyph glyph-name="Ucircumflex" unicode="&#xdb;" horiz-adv-x="730" 
d="M483 1170l67 -235h-120l-32 113c-4 13 -17 22 -33 22s-29 -9 -32 -22l-33 -113h-120l67 235h236zM515 860h130v-595c0 -168 -112 -280 -280 -280s-280 112 -280 280v595h130v-595c0 -90 60 -150 150 -150s150 60 150 150v595z" />
    <glyph glyph-name="Udieresis" unicode="&#xdc;" horiz-adv-x="730" 
d="M320 1090v-120h-150v120h150zM560 1090v-120h-150v120h150zM515 860h130v-595c0 -168 -112 -280 -280 -280s-280 112 -280 280v595h130v-595c0 -90 60 -150 150 -150s150 60 150 150v595z" />
    <glyph glyph-name="Ugrave" unicode="&#xd9;" horiz-adv-x="730" 
d="M215 1170v-50c0 -42 28 -70 70 -70h110v-115h-110c-111 0 -185 74 -185 185v50h115zM515 860h130v-595c0 -168 -112 -280 -280 -280s-280 112 -280 280v595h130v-595c0 -90 60 -150 150 -150s150 60 150 150v595z" />
    <glyph glyph-name="Uhungarumlaut" unicode="&#x170;" horiz-adv-x="730" 
d="M325 1170h115v-50c0 -111 -74 -185 -185 -185h-110v115h110c42 0 70 28 70 70v50zM515 1170h115v-235h-115v235zM515 860h130v-595c0 -168 -112 -280 -280 -280s-280 112 -280 280v595h130v-595c0 -90 60 -150 150 -150s150 60 150 150v595z" />
    <glyph glyph-name="Umacron" unicode="&#x16a;" horiz-adv-x="730" 
d="M565 955h-400v115h400v-115zM515 860h130v-595c0 -168 -112 -280 -280 -280s-280 112 -280 280v595h130v-595c0 -90 60 -150 150 -150s150 60 150 150v595z" />
    <glyph glyph-name="Uogonek" unicode="&#x172;" horiz-adv-x="730" 
d="M515 860h130v-595c0 -148 -87 -252 -222 -275v-60c0 -27 18 -45 45 -45h60v-115h-220v220c-136 22 -223 127 -223 275v595h130v-595c0 -90 60 -150 150 -150s150 60 150 150v595z" />
    <glyph glyph-name="Uring" unicode="&#x16e;" horiz-adv-x="730" 
d="M365 1230c93 0 155 -62 155 -155s-62 -155 -155 -155s-155 62 -155 155s62 155 155 155zM365 1123c-28 0 -47 -19 -47 -48c0 -28 19 -47 47 -47c29 0 48 19 48 47c0 29 -19 48 -48 48zM515 860h130v-595c0 -168 -112 -280 -280 -280s-280 112 -280 280v595h130v-595
c0 -90 60 -150 150 -150s150 60 150 150v595z" />
    <glyph glyph-name="V" unicode="V" horiz-adv-x="700" 
d="M538 860h132l-147 -860h-345l-148 860h132l113 -662c7 -41 37 -68 75 -68s68 27 75 68z" />
    <glyph glyph-name="W" unicode="W" horiz-adv-x="990" 
d="M828 860h132l-147 -860h-635l-148 860h132l113 -662c7 -41 37 -68 75 -68c57 0 88 46 76 114l-106 616h132l113 -662c8 -41 38 -68 75 -68c38 0 68 27 75 68z" />
    <glyph glyph-name="Wacute" unicode="&#x1e82;" horiz-adv-x="990" 
d="M510 1170h115v-50c0 -111 -74 -185 -185 -185h-110v115h110c42 0 70 28 70 70v50zM828 860h132l-147 -860h-635l-148 860h132l113 -662c7 -41 37 -68 75 -68c57 0 88 46 76 114l-106 616h132l113 -662c8 -41 38 -68 75 -68c38 0 68 27 75 68z" />
    <glyph glyph-name="Wcircumflex" unicode="&#x174;" horiz-adv-x="990" 
d="M760 1170l68 -235h-120l-33 113c-4 13 -17 22 -32 22c-16 0 -29 -9 -33 -22l-33 -113h-119l67 235h235zM828 860h132l-147 -860h-635l-148 860h132l113 -662c7 -41 37 -68 75 -68c57 0 88 46 76 114l-106 616h132l113 -662c8 -41 38 -68 75 -68c38 0 68 27 75 68z" />
    <glyph glyph-name="Wdieresis" unicode="&#x1e84;" horiz-adv-x="990" 
d="M598 1090v-120h-150v120h150zM838 1090v-120h-150v120h150zM828 860h132l-147 -860h-635l-148 860h132l113 -662c7 -41 37 -68 75 -68c57 0 88 46 76 114l-106 616h132l113 -662c8 -41 38 -68 75 -68c38 0 68 27 75 68z" />
    <glyph glyph-name="Wgrave" unicode="&#x1e80;" horiz-adv-x="990" 
d="M275 1170v-50c0 -42 28 -70 70 -70h110v-115h-110c-111 0 -185 74 -185 185v50h115zM828 860h132l-147 -860h-635l-148 860h132l113 -662c7 -41 37 -68 75 -68c57 0 88 46 76 114l-106 616h132l113 -662c8 -41 38 -68 75 -68c38 0 68 27 75 68z" />
    <glyph glyph-name="X" unicode="X" horiz-adv-x="700" 
d="M545 368l130 -368h-137l-117 327c-12 32 -40 53 -71 53s-59 -21 -71 -53l-117 -327h-137l130 368c9 25 15 55 15 77s-6 53 -15 78l-117 337h137l104 -296c11 -33 39 -54 71 -54s60 21 71 54l104 296h138l-118 -337c-9 -28 -15 -58 -15 -78c0 -21 6 -51 15 -77z" />
    <glyph glyph-name="Y" unicode="Y" horiz-adv-x="630" 
d="M479 860h136l-146 -470h-29c-36 0 -60 -24 -60 -60v-330h-130v330c0 36 -24 60 -60 60h-29l-146 470h136l93 -295c10 -33 39 -55 71 -55c33 0 61 22 71 55z" />
    <glyph glyph-name="Yacute" unicode="&#xdd;" 
d="M500 1170h115v-50c0 -111 -74 -185 -185 -185h-110v115h110c42 0 70 28 70 70v50zM479 860h136l-146 -470h-29c-36 0 -60 -24 -60 -60v-330h-130v330c0 36 -24 60 -60 60h-29l-146 470h136l93 -295c10 -33 39 -55 71 -55c33 0 61 22 71 55z" />
    <glyph glyph-name="Ycircumflex" unicode="&#x176;" 
d="M438 1170l67 -235h-120l-32 113c-4 13 -17 22 -33 22s-29 -9 -32 -22l-33 -113h-120l67 235h236zM479 860h136l-146 -470h-29c-36 0 -60 -24 -60 -60v-330h-130v330c0 36 -24 60 -60 60h-29l-146 470h136l93 -295c10 -33 39 -55 71 -55c33 0 61 22 71 55z" />
    <glyph glyph-name="Ydieresis" unicode="&#x178;" 
d="M275 1090v-120h-150v120h150zM515 1090v-120h-150v120h150zM479 860h136l-146 -470h-29c-36 0 -60 -24 -60 -60v-330h-130v330c0 36 -24 60 -60 60h-29l-146 470h136l93 -295c10 -33 39 -55 71 -55c33 0 61 22 71 55z" />
    <glyph glyph-name="Ygrave" unicode="&#x1ef2;" 
d="M140 1170v-50c0 -42 28 -70 70 -70h110v-115h-110c-111 0 -185 74 -185 185v50h115zM479 860h136l-146 -470h-29c-36 0 -60 -24 -60 -60v-330h-130v330c0 36 -24 60 -60 60h-29l-146 470h136l93 -295c10 -33 39 -55 71 -55c33 0 61 22 71 55z" />
    <glyph glyph-name="Z" unicode="Z" 
d="M340 380h-20c-75 0 -125 -50 -125 -125s50 -125 125 -125h240v-130h-480v510h260c66 0 110 44 110 110s-44 110 -110 110h-260v130h500v-240c0 -144 -96 -240 -240 -240z" />
    <glyph glyph-name="Zacute" unicode="&#x179;" 
d="M260 1170h115v-50c0 -111 -74 -185 -185 -185h-110v115h110c42 0 70 28 70 70v50zM340 380h-20c-75 0 -125 -50 -125 -125s50 -125 125 -125h240v-130h-480v510h260c66 0 110 44 110 110s-44 110 -110 110h-260v130h500v-240c0 -144 -96 -240 -240 -240z" />
    <glyph glyph-name="Zcaron" unicode="&#x17d;" 
d="M448 935h-235l-67 235h119l33 -112c4 -14 17 -23 33 -23c15 0 28 9 32 23l33 112h120zM340 380h-20c-75 0 -125 -50 -125 -125s50 -125 125 -125h240v-130h-480v510h260c66 0 110 44 110 110s-44 110 -110 110h-260v130h500v-240c0 -144 -96 -240 -240 -240z" />
    <glyph glyph-name="Zdotaccent" unicode="&#x17b;" 
d="M406 1090v-120h-150v120h150zM340 380h-20c-75 0 -125 -50 -125 -125s50 -125 125 -125h240v-130h-480v510h260c66 0 110 44 110 110s-44 110 -110 110h-260v130h500v-240c0 -144 -96 -240 -240 -240z" />
    <glyph glyph-name="a" unicode="a" horiz-adv-x="620" 
d="M535 630v-630h-295c-114 0 -190 76 -190 190s76 190 190 190h120c36 0 60 24 60 60s-24 60 -60 60h-230v130h405zM360 130c36 0 60 24 60 60s-24 60 -60 60h-120c-36 0 -60 -24 -60 -60s24 -60 60 -60h120z" />
    <glyph glyph-name="aacute" unicode="&#xe1;" horiz-adv-x="620" 
d="M310 940h115v-50c0 -111 -74 -185 -185 -185h-110v115h110c42 0 70 28 70 70v50zM535 630v-630h-295c-114 0 -190 76 -190 190s76 190 190 190h120c36 0 60 24 60 60s-24 60 -60 60h-230v130h405zM360 130c36 0 60 24 60 60s-24 60 -60 60h-120c-36 0 -60 -24 -60 -60
s24 -60 60 -60h120z" />
    <glyph glyph-name="abreve" unicode="&#x103;" horiz-adv-x="620" 
d="M388 860h115c0 -102 -68 -170 -170 -170s-170 68 -170 170h115c0 -33 22 -55 55 -55s55 22 55 55zM535 630v-630h-295c-114 0 -190 76 -190 190s76 190 190 190h120c36 0 60 24 60 60s-24 60 -60 60h-230v130h405zM360 130c36 0 60 24 60 60s-24 60 -60 60h-120
c-36 0 -60 -24 -60 -60s24 -60 60 -60h120z" />
    <glyph glyph-name="acircumflex" unicode="&#xe2;" horiz-adv-x="620" 
d="M450 940l68 -235h-120l-33 113c-4 13 -17 22 -32 22c-16 0 -29 -9 -33 -22l-33 -113h-119l67 235h235zM535 630v-630h-295c-114 0 -190 76 -190 190s76 190 190 190h120c36 0 60 24 60 60s-24 60 -60 60h-230v130h405zM360 130c36 0 60 24 60 60s-24 60 -60 60h-120
c-36 0 -60 -24 -60 -60s24 -60 60 -60h120z" />
    <glyph glyph-name="adieresis" unicode="&#xe4;" horiz-adv-x="620" 
d="M285 860v-120h-150v120h150zM525 860v-120h-150v120h150zM535 630v-630h-295c-114 0 -190 76 -190 190s76 190 190 190h120c36 0 60 24 60 60s-24 60 -60 60h-230v130h405zM360 130c36 0 60 24 60 60s-24 60 -60 60h-120c-36 0 -60 -24 -60 -60s24 -60 60 -60h120z" />
    <glyph glyph-name="agrave" unicode="&#xe0;" horiz-adv-x="620" 
d="M355 940v-50c0 -42 28 -70 70 -70h110v-115h-110c-111 0 -185 74 -185 185v50h115zM535 630v-630h-295c-114 0 -190 76 -190 190s76 190 190 190h120c36 0 60 24 60 60s-24 60 -60 60h-230v130h405zM360 130c36 0 60 24 60 60s-24 60 -60 60h-120c-36 0 -60 -24 -60 -60
s24 -60 60 -60h120z" />
    <glyph glyph-name="amacron" unicode="&#x101;" horiz-adv-x="620" 
d="M530 725h-400v115h400v-115zM535 630v-630h-295c-114 0 -190 76 -190 190s76 190 190 190h120c36 0 60 24 60 60s-24 60 -60 60h-230v130h405zM360 130c36 0 60 24 60 60s-24 60 -60 60h-120c-36 0 -60 -24 -60 -60s24 -60 60 -60h120z" />
    <glyph glyph-name="aogonek" unicode="&#x105;" horiz-adv-x="620" 
d="M580 -115h60v-115h-220v230h-180c-114 0 -190 76 -190 190s76 190 190 190h120c36 0 60 24 60 60s-24 60 -60 60h-230v130h405v-700c0 -27 18 -45 45 -45zM360 130c36 0 60 24 60 60s-24 60 -60 60h-120c-36 0 -60 -24 -60 -60s24 -60 60 -60h120z" />
    <glyph glyph-name="aring" unicode="&#xe5;" horiz-adv-x="620" 
d="M330 1000c93 0 155 -62 155 -155s-62 -155 -155 -155s-155 62 -155 155s62 155 155 155zM330 893c-28 0 -47 -19 -47 -48c0 -28 19 -47 47 -47c29 0 48 19 48 47c0 29 -19 48 -48 48zM535 630v-630h-295c-114 0 -190 76 -190 190s76 190 190 190h120c36 0 60 24 60 60
s-24 60 -60 60h-230v130h405zM360 130c36 0 60 24 60 60s-24 60 -60 60h-120c-36 0 -60 -24 -60 -60s24 -60 60 -60h120z" />
    <glyph glyph-name="atilde" unicode="&#xe3;" horiz-adv-x="620" 
d="M510 940h115v-97c0 -92 -61 -153 -152 -153c-92 0 -153 61 -153 153v5c0 22 -15 37 -37 37c-23 0 -38 -15 -38 -37v-143h-115v143c0 91 61 152 153 152c91 0 152 -61 152 -152v-5c0 -23 15 -38 38 -38c22 0 37 15 37 38v97zM130 500v130h405v-630h-295
c-114 0 -190 76 -190 190s76 190 190 190h120c36 0 60 24 60 60s-24 60 -60 60h-230zM360 130c36 0 60 24 60 60s-24 60 -60 60h-120c-36 0 -60 -24 -60 -60s24 -60 60 -60h120z" />
    <glyph glyph-name="ae" unicode="&#xe6;" horiz-adv-x="955" 
d="M595 250c-36 0 -60 -24 -60 -60s24 -60 60 -60h230v-130h-585c-114 0 -190 76 -190 190s76 190 190 190h120c36 0 60 24 60 60s-24 60 -60 60h-230v130h585c114 0 190 -76 190 -190s-76 -190 -190 -190h-120zM595 500c-36 0 -60 -24 -60 -60s24 -60 60 -60h120
c36 0 60 24 60 60s-24 60 -60 60h-120zM360 130c36 0 60 24 60 60s-24 60 -60 60h-120c-36 0 -60 -24 -60 -60s24 -60 60 -60h120z" />
    <glyph glyph-name="b" unicode="b" horiz-adv-x="645" 
d="M335 630c150 0 250 -100 250 -250v-130c0 -150 -100 -250 -250 -250h-250v860h130v-140c0 -54 36 -90 90 -90h30zM455 250v130c0 72 -48 120 -120 120s-120 -48 -120 -120v-130c0 -72 48 -120 120 -120s120 48 120 120z" />
    <glyph glyph-name="c" unicode="c" 
d="M320 115c78 0 130 52 130 130h130c0 -156 -104 -260 -260 -260s-260 104 -260 260v140c0 156 104 260 260 260s260 -104 260 -260h-130c0 78 -52 130 -130 130s-130 -52 -130 -130v-140c0 -78 52 -130 130 -130z" />
    <glyph glyph-name="cacute" unicode="&#x107;" 
d="M390 940h115v-50c0 -111 -74 -185 -185 -185h-110v115h110c42 0 70 28 70 70v50zM320 115c78 0 130 52 130 130h130c0 -156 -104 -260 -260 -260s-260 104 -260 260v140c0 156 104 260 260 260s260 -104 260 -260h-130c0 78 -52 130 -130 130s-130 -52 -130 -130v-140
c0 -78 52 -130 130 -130z" />
    <glyph glyph-name="ccaron" unicode="&#x10d;" 
d="M438 705h-236l-67 235h120l33 -112c3 -14 16 -23 32 -23s29 9 33 23l32 112h120zM320 115c78 0 130 52 130 130h130c0 -156 -104 -260 -260 -260s-260 104 -260 260v140c0 156 104 260 260 260s260 -104 260 -260h-130c0 78 -52 130 -130 130s-130 -52 -130 -130v-140
c0 -78 52 -130 130 -130z" />
    <glyph glyph-name="ccedilla" unicode="&#xe7;" 
d="M320 115c78 0 130 52 130 130h130c0 -136 -79 -232 -202 -255v-220h-220v115h60c27 0 45 18 45 45v60c-124 22 -203 119 -203 255v140c0 156 104 260 260 260s260 -104 260 -260h-130c0 78 -52 130 -130 130s-130 -52 -130 -130v-140c0 -78 52 -130 130 -130z" />
    <glyph glyph-name="cdotaccent" unicode="&#x10b;" 
d="M395 860v-120h-150v120h150zM320 115c78 0 130 52 130 130h130c0 -156 -104 -260 -260 -260s-260 104 -260 260v140c0 156 104 260 260 260s260 -104 260 -260h-130c0 78 -52 130 -130 130s-130 -52 -130 -130v-140c0 -78 52 -130 130 -130z" />
    <glyph glyph-name="d" unicode="d" horiz-adv-x="645" 
d="M310 630h30c54 0 90 36 90 90v140h130v-860h-250c-150 0 -250 100 -250 250v130c0 150 100 250 250 250zM190 250c0 -72 48 -120 120 -120s120 48 120 120v130c0 72 -48 120 -120 120s-120 -48 -120 -120v-130z" />
    <glyph glyph-name="eth" unicode="&#xf0;" horiz-adv-x="645" 
d="M370 840c126 0 210 -84 210 -210v-385c0 -156 -104 -260 -260 -260s-260 104 -260 260v45c0 156 104 260 260 260h50c48 0 80 32 80 80s-32 80 -80 80c-39 0 -65 -26 -65 -65v-35h-115v35c0 39 -26 65 -65 65h-65v130h65c39 0 65 26 65 65v35h115v-35
c0 -39 26 -65 65 -65zM450 245v45c0 78 -52 130 -130 130s-130 -52 -130 -130v-45c0 -78 52 -130 130 -130s130 52 130 130z" />
    <glyph glyph-name="dcaron" unicode="&#x10f;" horiz-adv-x="750" 
d="M635 940h115v-235h-115v235zM310 630h30c54 0 90 36 90 90v140h130v-860h-250c-150 0 -250 100 -250 250v130c0 150 100 250 250 250zM190 250c0 -72 48 -120 120 -120s120 48 120 120v130c0 72 -48 120 -120 120s-120 -48 -120 -120v-130z" />
    <glyph glyph-name="dcroat" unicode="&#x111;" horiz-adv-x="635" 
d="M153 860h525v-115h-70c-35 0 -58 -23 -58 -57v-688h-245c-147 0 -245 98 -245 245v140c0 147 98 245 245 245h58c34 0 57 23 57 58c0 34 -23 57 -57 57h-210v115zM420 245v140c0 69 -46 115 -115 115s-115 -46 -115 -115v-140c0 -69 46 -115 115 -115s115 46 115 115z
" />
    <glyph glyph-name="e" unicode="e" horiz-adv-x="620" 
d="M85 0v630h295c114 0 190 -76 190 -190s-76 -190 -190 -190h-120c-36 0 -60 -24 -60 -60s24 -60 60 -60h230v-130h-405zM260 500c-36 0 -60 -24 -60 -60s24 -60 60 -60h120c36 0 60 24 60 60s-24 60 -60 60h-120z" />
    <glyph glyph-name="eacute" unicode="&#xe9;" horiz-adv-x="620" 
d="M265 940h115v-50c0 -111 -74 -185 -185 -185h-110v115h110c42 0 70 28 70 70v50zM85 0v630h295c114 0 190 -76 190 -190s-76 -190 -190 -190h-120c-36 0 -60 -24 -60 -60s24 -60 60 -60h230v-130h-405zM260 500c-36 0 -60 -24 -60 -60s24 -60 60 -60h120
c36 0 60 24 60 60s-24 60 -60 60h-120z" />
    <glyph glyph-name="ecaron" unicode="&#x11b;" horiz-adv-x="620" 
d="M388 705h-236l-67 235h120l33 -112c3 -14 16 -23 32 -23s29 9 33 23l32 112h120zM85 0v630h295c114 0 190 -76 190 -190s-76 -190 -190 -190h-120c-36 0 -60 -24 -60 -60s24 -60 60 -60h230v-130h-405zM260 500c-36 0 -60 -24 -60 -60s24 -60 60 -60h120
c36 0 60 24 60 60s-24 60 -60 60h-120z" />
    <glyph glyph-name="ecircumflex" unicode="&#xea;" horiz-adv-x="620" 
d="M398 940l67 -235h-120l-32 113c-4 13 -17 22 -33 22s-29 -9 -32 -22l-33 -113h-120l67 235h236zM85 0v630h295c114 0 190 -76 190 -190s-76 -190 -190 -190h-120c-36 0 -60 -24 -60 -60s24 -60 60 -60h230v-130h-405zM260 500c-36 0 -60 -24 -60 -60s24 -60 60 -60h120
c36 0 60 24 60 60s-24 60 -60 60h-120z" />
    <glyph glyph-name="edieresis" unicode="&#xeb;" horiz-adv-x="620" 
d="M245 860v-120h-150v120h150zM485 860v-120h-150v120h150zM85 0v630h295c114 0 190 -76 190 -190s-76 -190 -190 -190h-120c-36 0 -60 -24 -60 -60s24 -60 60 -60h230v-130h-405zM260 500c-36 0 -60 -24 -60 -60s24 -60 60 -60h120c36 0 60 24 60 60s-24 60 -60 60h-120z
" />
    <glyph glyph-name="edotaccent" unicode="&#x117;" horiz-adv-x="620" 
d="M350 860v-120h-150v120h150zM85 0v630h295c114 0 190 -76 190 -190s-76 -190 -190 -190h-120c-36 0 -60 -24 -60 -60s24 -60 60 -60h230v-130h-405zM260 500c-36 0 -60 -24 -60 -60s24 -60 60 -60h120c36 0 60 24 60 60s-24 60 -60 60h-120z" />
    <glyph glyph-name="egrave" unicode="&#xe8;" horiz-adv-x="620" 
d="M200 940v-50c0 -42 28 -70 70 -70h110v-115h-110c-111 0 -185 74 -185 185v50h115zM85 0v630h295c114 0 190 -76 190 -190s-76 -190 -190 -190h-120c-36 0 -60 -24 -60 -60s24 -60 60 -60h230v-130h-405zM260 500c-36 0 -60 -24 -60 -60s24 -60 60 -60h120
c36 0 60 24 60 60s-24 60 -60 60h-120z" />
    <glyph glyph-name="emacron" unicode="&#x113;" horiz-adv-x="620" 
d="M485 725h-400v115h400v-115zM85 0v630h295c114 0 190 -76 190 -190s-76 -190 -190 -190h-120c-36 0 -60 -24 -60 -60s24 -60 60 -60h230v-130h-405zM260 500c-36 0 -60 -24 -60 -60s24 -60 60 -60h120c36 0 60 24 60 60s-24 60 -60 60h-120z" />
    <glyph glyph-name="eogonek" unicode="&#x119;" horiz-adv-x="620" 
d="M535 -115h60v-115h-220v230h-290v630h295c114 0 190 -76 190 -190s-76 -190 -190 -190h-120c-36 0 -60 -24 -60 -60s24 -60 60 -60h230v-200c0 -27 18 -45 45 -45zM260 500c-36 0 -60 -24 -60 -60s24 -60 60 -60h120c36 0 60 24 60 60s-24 60 -60 60h-120z" />
    <glyph glyph-name="f" unicode="f" horiz-adv-x="465" 
d="M260 730c-30 0 -50 -20 -50 -50s20 -50 50 -50h185v-130h-185c-30 0 -50 -20 -50 -50v-450h-130v680c0 108 72 180 180 180h185v-130h-185z" />
    <glyph glyph-name="g" unicode="g" 
d="M320 645c150 0 250 -100 250 -250v-625h-500v130h290c48 0 80 32 80 80s-32 80 -80 80h-290v335c0 150 100 250 250 250zM320 175c72 0 120 48 120 120v100c0 72 -48 120 -120 120s-120 -48 -120 -120v-100c0 -72 48 -120 120 -120z" />
    <glyph glyph-name="gbreve" unicode="&#x11f;" 
d="M375 860h115c0 -102 -68 -170 -170 -170s-170 68 -170 170h115c0 -33 22 -55 55 -55s55 22 55 55zM320 645c150 0 250 -100 250 -250v-625h-500v130h290c48 0 80 32 80 80s-32 80 -80 80h-290v335c0 150 100 250 250 250zM320 175c72 0 120 48 120 120v100
c0 72 -48 120 -120 120s-120 -48 -120 -120v-100c0 -72 48 -120 120 -120z" />
    <glyph glyph-name="uni0123" unicode="&#x123;" 
d="M380 705h-115v50c0 111 74 185 185 185h110v-115h-110c-42 0 -70 -28 -70 -70v-50zM320 645c150 0 250 -100 250 -250v-625h-500v130h290c48 0 80 32 80 80s-32 80 -80 80h-290v335c0 150 100 250 250 250zM320 175c72 0 120 48 120 120v100c0 72 -48 120 -120 120
s-120 -48 -120 -120v-100c0 -72 48 -120 120 -120z" />
    <glyph glyph-name="gdotaccent" unicode="&#x121;" 
d="M395 860v-120h-150v120h150zM320 645c150 0 250 -100 250 -250v-625h-500v130h290c48 0 80 32 80 80s-32 80 -80 80h-290v335c0 150 100 250 250 250zM320 175c72 0 120 48 120 120v100c0 72 -48 120 -120 120s-120 -48 -120 -120v-100c0 -72 48 -120 120 -120z" />
    <glyph glyph-name="h" unicode="h" horiz-adv-x="635" 
d="M325 630c144 0 240 -96 240 -240v-390h-130v390c0 66 -44 110 -110 110s-110 -44 -110 -110v-390h-130v860h130v-140c0 -54 36 -90 90 -90h20z" />
    <glyph glyph-name="hbar" unicode="&#x127;" horiz-adv-x="635" 
d="M325 630c144 0 240 -96 240 -240v-390h-130v390c0 66 -44 110 -110 110s-110 -44 -110 -110v-390h-130v688c0 34 -23 57 -57 57h-71v115h526v-115h-210c-35 0 -58 -23 -58 -57c0 -35 23 -58 58 -58h52z" />
    <glyph glyph-name="i" unicode="i" horiz-adv-x="290" 
d="M220 860v-120h-150v120h150zM210 630v-630h-130v630h130z" />
    <glyph glyph-name="dotlessi" unicode="&#x131;" horiz-adv-x="290" 
d="M210 630v-630h-130v630h130z" />
    <glyph glyph-name="iacute" unicode="&#xed;" horiz-adv-x="290" 
d="M260 940h115v-50c0 -111 -74 -185 -185 -185h-110v115h110c42 0 70 28 70 70v50zM210 630v-630h-130v630h130z" />
    <glyph glyph-name="icircumflex" unicode="&#xee;" horiz-adv-x="290" 
d="M263 940l67 -235h-120l-32 113c-4 13 -17 22 -33 22s-29 -9 -32 -22l-33 -113h-120l67 235h236zM210 630v-630h-130v630h130z" />
    <glyph glyph-name="idieresis" unicode="&#xef;" horiz-adv-x="290" 
d="M100 860v-120h-150v120h150zM340 860v-120h-150v120h150zM210 630v-630h-130v630h130z" />
    <glyph glyph-name="i.loclTRK" horiz-adv-x="290" 
d="M220 860v-120h-150v120h150zM210 630v-630h-130v630h130z" />
    <glyph glyph-name="igrave" unicode="&#xec;" horiz-adv-x="290" 
d="M30 940v-50c0 -42 28 -70 70 -70h110v-115h-110c-111 0 -185 74 -185 185v50h115zM210 630v-630h-130v630h130z" />
    <glyph glyph-name="imacron" unicode="&#x12b;" horiz-adv-x="290" 
d="M345 725h-400v115h400v-115zM210 630v-630h-130v630h130z" />
    <glyph glyph-name="iogonek" unicode="&#x12f;" horiz-adv-x="290" 
d="M220 860v-120h-150v120h150zM255 -100h60v-130h-60c-108 0 -175 67 -175 175v685h130v-685c0 -30 15 -45 45 -45z" />
    <glyph glyph-name="j" unicode="j" horiz-adv-x="290" 
d="M220 860v-120h-150v120h150zM210 630v-635c0 -135 -90 -225 -225 -225h-65v130h65c57 0 95 38 95 95v635h130z" />
    <glyph glyph-name="k" unicode="k" horiz-adv-x="625" 
d="M500 223l90 -223h-135l-83 202c-15 35 -46 58 -77 58c-48 0 -80 -32 -80 -80v-180h-130v860h130v-390c0 -48 32 -80 80 -80c32 0 62 23 77 58l73 182h135l-80 -202c-13 -35 -22 -75 -22 -103s8 -67 22 -102z" />
    <glyph glyph-name="uni0137" unicode="&#x137;" horiz-adv-x="625" 
d="M500 223l90 -223h-135l-83 202c-15 35 -46 58 -77 58c-48 0 -80 -32 -80 -80v-180h-130v860h130v-390c0 -48 32 -80 80 -80c32 0 62 23 77 58l73 182h135l-80 -202c-13 -35 -22 -75 -22 -103s8 -67 22 -102zM100 -75h115v-50c0 -111 -74 -185 -185 -185h-110v115h110
c42 0 70 28 70 70v50z" />
    <glyph glyph-name="l" unicode="l" horiz-adv-x="300" 
d="M215 860v-860h-130v860h130z" />
    <glyph glyph-name="lacute" unicode="&#x13a;" horiz-adv-x="300" 
d="M265 1170h115v-50c0 -111 -74 -185 -185 -185h-110v115h110c42 0 70 28 70 70v50zM215 860v-860h-130v860h130z" />
    <glyph glyph-name="lcaron" unicode="&#x13e;" horiz-adv-x="405" 
d="M290 940h115v-235h-115v235zM215 860v-860h-130v860h130z" />
    <glyph glyph-name="uni013C" unicode="&#x13c;" horiz-adv-x="300" 
d="M215 860v-860h-130v860h130zM100 -75h115v-50c0 -111 -74 -185 -185 -185h-110v115h110c42 0 70 28 70 70v50z" />
    <glyph glyph-name="lslash" unicode="&#x142;" horiz-adv-x="450" 
d="M340 463l105 20v-118l-105 -20c-30 -6 -50 -32 -50 -65v-280h-130v253c0 35 -20 56 -50 50l-105 -20v117l105 20c30 6 50 32 50 65v375h130v-347c0 -36 20 -56 50 -50z" />
    <glyph glyph-name="m" unicode="m" horiz-adv-x="940" 
d="M640 630c138 0 230 -92 230 -230v-400h-130v400c0 60 -40 100 -100 100s-100 -40 -100 -100v-400h-130v400c0 60 -40 100 -100 100s-100 -40 -100 -100v-400h-130v630h560z" />
    <glyph glyph-name="n" unicode="n" horiz-adv-x="630" 
d="M320 630c145 0 240 -95 240 -240v-390h-130v390c0 67 -43 110 -110 110s-110 -43 -110 -110v-390h-130v630h240z" />
    <glyph glyph-name="nacute" unicode="&#x144;" horiz-adv-x="630" 
d="M260 940h115v-50c0 -111 -74 -185 -185 -185h-110v115h110c42 0 70 28 70 70v50zM320 630c145 0 240 -95 240 -240v-390h-130v390c0 67 -43 110 -110 110s-110 -43 -110 -110v-390h-130v630h240z" />
    <glyph glyph-name="ncaron" unicode="&#x148;" horiz-adv-x="630" 
d="M388 705h-236l-67 235h120l33 -112c3 -14 16 -23 32 -23s29 9 33 23l32 112h120zM320 630c145 0 240 -95 240 -240v-390h-130v390c0 67 -43 110 -110 110s-110 -43 -110 -110v-390h-130v630h240z" />
    <glyph glyph-name="uni0146" unicode="&#x146;" horiz-adv-x="630" 
d="M320 630c145 0 240 -95 240 -240v-390h-130v390c0 67 -43 110 -110 110s-110 -43 -110 -110v-390h-130v630h240zM95 -75h115v-50c0 -111 -74 -185 -185 -185h-110v115h110c42 0 70 28 70 70v50z" />
    <glyph glyph-name="eng" unicode="&#x14b;" horiz-adv-x="630" 
d="M320 630c145 0 240 -95 240 -240v-400c0 -132 -88 -220 -220 -220h-25v130h25c54 0 90 36 90 90v400c0 67 -43 110 -110 110s-110 -43 -110 -110v-390h-130v630h240z" />
    <glyph glyph-name="ntilde" unicode="&#xf1;" horiz-adv-x="630" 
d="M460 940h115v-97c0 -92 -61 -153 -152 -153c-92 0 -153 61 -153 153v5c0 22 -15 37 -37 37c-23 0 -38 -15 -38 -37v-143h-115v143c0 91 61 152 153 152c91 0 152 -61 152 -152v-5c0 -23 15 -38 38 -38c22 0 37 15 37 38v97zM320 630c145 0 240 -95 240 -240v-390h-130
v390c0 67 -43 110 -110 110s-110 -43 -110 -110v-390h-130v630h240z" />
    <glyph glyph-name="o" unicode="o" 
d="M320 645c156 0 260 -104 260 -260v-140c0 -156 -104 -260 -260 -260s-260 104 -260 260v140c0 156 104 260 260 260zM450 245v140c0 78 -52 130 -130 130s-130 -52 -130 -130v-140c0 -78 52 -130 130 -130s130 52 130 130z" />
    <glyph glyph-name="oacute" unicode="&#xf3;" 
d="M390 940h115v-50c0 -111 -74 -185 -185 -185h-110v115h110c42 0 70 28 70 70v50zM320 645c156 0 260 -104 260 -260v-140c0 -156 -104 -260 -260 -260s-260 104 -260 260v140c0 156 104 260 260 260zM450 245v140c0 78 -52 130 -130 130s-130 -52 -130 -130v-140
c0 -78 52 -130 130 -130s130 52 130 130z" />
    <glyph glyph-name="ocircumflex" unicode="&#xf4;" 
d="M438 940l67 -235h-120l-32 113c-4 13 -17 22 -33 22s-29 -9 -32 -22l-33 -113h-120l67 235h236zM320 645c156 0 260 -104 260 -260v-140c0 -156 -104 -260 -260 -260s-260 104 -260 260v140c0 156 104 260 260 260zM450 245v140c0 78 -52 130 -130 130
s-130 -52 -130 -130v-140c0 -78 52 -130 130 -130s130 52 130 130z" />
    <glyph glyph-name="odieresis" unicode="&#xf6;" 
d="M275 860v-120h-150v120h150zM515 860v-120h-150v120h150zM320 645c156 0 260 -104 260 -260v-140c0 -156 -104 -260 -260 -260s-260 104 -260 260v140c0 156 104 260 260 260zM450 245v140c0 78 -52 130 -130 130s-130 -52 -130 -130v-140c0 -78 52 -130 130 -130
s130 52 130 130z" />
    <glyph glyph-name="ograve" unicode="&#xf2;" 
d="M250 940v-50c0 -42 28 -70 70 -70h110v-115h-110c-111 0 -185 74 -185 185v50h115zM320 645c156 0 260 -104 260 -260v-140c0 -156 -104 -260 -260 -260s-260 104 -260 260v140c0 156 104 260 260 260zM450 245v140c0 78 -52 130 -130 130s-130 -52 -130 -130v-140
c0 -78 52 -130 130 -130s130 52 130 130z" />
    <glyph glyph-name="ohungarumlaut" unicode="&#x151;" 
d="M258 940h115v-50c0 -111 -74 -185 -185 -185h-110v115h110c42 0 70 28 70 70v50zM448 940h115v-235h-115v235zM320 645c156 0 260 -104 260 -260v-140c0 -156 -104 -260 -260 -260s-260 104 -260 260v140c0 156 104 260 260 260zM450 245v140c0 78 -52 130 -130 130
s-130 -52 -130 -130v-140c0 -78 52 -130 130 -130s130 52 130 130z" />
    <glyph glyph-name="omacron" unicode="&#x14d;" 
d="M520 725h-400v115h400v-115zM320 645c156 0 260 -104 260 -260v-140c0 -156 -104 -260 -260 -260s-260 104 -260 260v140c0 156 104 260 260 260zM450 245v140c0 78 -52 130 -130 130s-130 -52 -130 -130v-140c0 -78 52 -130 130 -130s130 52 130 130z" />
    <glyph glyph-name="oslash" unicode="&#xf8;" horiz-adv-x="735" 
d="M660 373h70v-115h-70c-36 0 -60 -24 -60 -60c0 -123 -82 -206 -205 -206h-55c-123 0 -205 83 -205 206c0 36 -24 60 -60 60h-70v115h70c36 0 60 24 60 60c0 123 82 205 205 205h55c123 0 205 -82 205 -205c0 -36 24 -60 60 -60zM410 373c36 0 60 24 60 60
c0 45 -30 75 -75 75h-55c-45 0 -75 -30 -75 -75c0 -36 24 -60 60 -60h85zM395 123c45 0 75 30 75 75c0 36 -24 60 -60 60h-85c-36 0 -60 -24 -60 -60c0 -45 30 -75 75 -75h55z" />
    <glyph glyph-name="otilde" unicode="&#xf5;" horiz-adv-x="630" 
d="M198 848v-143h-115v143c0 91 61 152 152 152c92 0 153 -61 153 -152v-5c0 -23 15 -38 37 -38c23 0 38 15 38 38v97h115v-97c0 -92 -61 -153 -153 -153c-91 0 -152 61 -152 153v5c0 22 -15 37 -38 37c-22 0 -37 -15 -37 -37zM320 645c156 0 260 -104 260 -260v-140
c0 -156 -104 -260 -260 -260s-260 104 -260 260v140c0 156 104 260 260 260zM450 245v140c0 78 -52 130 -130 130s-130 -52 -130 -130v-140c0 -78 52 -130 130 -130s130 52 130 130z" />
    <glyph glyph-name="oe" unicode="&#x153;" horiz-adv-x="985" 
d="M625 250c-36 0 -60 -24 -60 -60s24 -60 60 -60h230v-130h-535c-156 0 -260 104 -260 260v110c0 156 104 260 260 260h425c114 0 190 -76 190 -190s-76 -190 -190 -190h-120zM450 260v113c0 78 -52 127 -130 127s-130 -52 -130 -130v-110c0 -78 52 -130 130 -130
s130 52 130 130zM625 500c-36 0 -60 -24 -60 -60s24 -60 60 -60h120c36 0 60 24 60 60s-24 60 -60 60h-120z" />
    <glyph glyph-name="p" unicode="p" horiz-adv-x="645" 
d="M335 0h-30c-54 0 -90 -36 -90 -90v-140h-130v860h250c150 0 250 -100 250 -250v-130c0 -150 -100 -250 -250 -250zM455 380c0 72 -48 120 -120 120s-120 -48 -120 -120v-130c0 -72 48 -120 120 -120s120 48 120 120v130z" />
    <glyph glyph-name="thorn" unicode="&#xfe;" horiz-adv-x="645" 
d="M335 630c150 0 250 -100 250 -250v-130c0 -150 -100 -250 -250 -250h-30c-54 0 -90 -36 -90 -90v-140h-130v1090h130v-140c0 -54 36 -90 90 -90h30zM455 250v130c0 72 -48 120 -120 120s-120 -48 -120 -120v-130c0 -72 48 -120 120 -120s120 48 120 120z" />
    <glyph glyph-name="q" unicode="q" horiz-adv-x="645" 
d="M310 0c-150 0 -250 100 -250 250v130c0 150 100 250 250 250h250v-860h-130v140c0 54 -36 90 -90 90h-30zM190 380v-130c0 -72 48 -120 120 -120s120 48 120 120v130c0 72 -48 120 -120 120s-120 -48 -120 -120z" />
    <glyph glyph-name="r" unicode="r" horiz-adv-x="455" 
d="M435 630v-130h-115c-67 0 -110 -43 -110 -110v-390h-130v630h355z" />
    <glyph glyph-name="racute" unicode="&#x155;" horiz-adv-x="455" 
d="M260 940h115v-50c0 -111 -74 -185 -185 -185h-110v115h110c42 0 70 28 70 70v50zM435 630v-130h-115c-67 0 -110 -43 -110 -110v-390h-130v630h355z" />
    <glyph glyph-name="rcaron" unicode="&#x159;" horiz-adv-x="455" 
d="M368 705h-236l-67 235h120l33 -112c3 -14 16 -23 32 -23s29 9 33 23l32 112h120zM435 630v-130h-115c-67 0 -110 -43 -110 -110v-390h-130v630h355z" />
    <glyph glyph-name="uni0157" unicode="&#x157;" horiz-adv-x="455" 
d="M435 630v-130h-115c-67 0 -110 -43 -110 -110v-390h-130v630h355zM95 -75h115v-50c0 -111 -74 -185 -185 -185h-110v115h110c42 0 70 28 70 70v50z" />
    <glyph glyph-name="s" unicode="s" horiz-adv-x="570" 
d="M240 250c-114 0 -190 76 -190 190s76 190 190 190h255v-130h-255c-36 0 -60 -24 -60 -60s24 -60 60 -60h255v-380h-365v130h190c36 0 60 24 60 60s-24 60 -60 60h-80z" />
    <glyph glyph-name="sacute" unicode="&#x15b;" horiz-adv-x="570" 
d="M380 940h115v-50c0 -111 -74 -185 -185 -185h-110v115h110c42 0 70 28 70 70v50zM240 250c-114 0 -190 76 -190 190s76 190 190 190h255v-130h-255c-36 0 -60 -24 -60 -60s24 -60 60 -60h255v-380h-365v130h190c36 0 60 24 60 60s-24 60 -60 60h-80z" />
    <glyph glyph-name="scaron" unicode="&#x161;" horiz-adv-x="570" 
d="M448 705h-236l-67 235h120l33 -112c3 -14 16 -23 32 -23s29 9 33 23l32 112h120zM240 250c-114 0 -190 76 -190 190s76 190 190 190h255v-130h-255c-36 0 -60 -24 -60 -60s24 -60 60 -60h255v-380h-365v130h190c36 0 60 24 60 60s-24 60 -60 60h-80z" />
    <glyph glyph-name="scedilla" unicode="&#x15f;" horiz-adv-x="570" 
d="M240 500c-36 0 -60 -24 -60 -60s24 -60 60 -60h255v-380h-250v-230h-220v115h60c27 0 45 18 45 45v200h190c36 0 60 24 60 60s-24 60 -60 60h-80c-114 0 -190 76 -190 190s76 190 190 190h255v-130h-255z" />
    <glyph glyph-name="uni0219" unicode="&#x219;" horiz-adv-x="570" 
d="M240 250c-114 0 -190 76 -190 190s76 190 190 190h255v-130h-255c-36 0 -60 -24 -60 -60s24 -60 60 -60h255v-380h-365v130h190c36 0 60 24 60 60s-24 60 -60 60h-80zM130 -75h115v-50c0 -111 -74 -185 -185 -185h-110v115h110c42 0 70 28 70 70v50z" />
    <glyph glyph-name="germandbls" unicode="&#xdf;" horiz-adv-x="780" 
d="M495 380h210v-380h-320v130h145c36 0 60 24 60 60s-24 60 -60 60h-35c-114 0 -190 76 -190 190s76 190 190 190h20c30 0 50 20 50 50s-20 50 -50 50h-20c-174 0 -290 -116 -290 -290v-440h-130v440c0 252 168 420 420 420h20c108 0 180 -72 180 -180s-72 -180 -180 -180
h-20c-36 0 -60 -24 -60 -60s24 -60 60 -60z" />
    <glyph glyph-name="t" unicode="t" horiz-adv-x="495" 
d="M280 500c-48 0 -80 -32 -80 -80v-175c0 -69 46 -115 115 -115h140v-130h-140c-147 0 -245 98 -245 245v585h130v-120c0 -48 32 -80 80 -80h175v-130h-175z" />
    <glyph glyph-name="tbar" unicode="&#x167;" horiz-adv-x="590" 
d="M350 500c-36 0 -60 -24 -60 -60c0 -30 20 -50 50 -50h125v-115h-125c-30 0 -50 -20 -50 -50c0 -55 40 -95 95 -95h160v-130h-160c-133 0 -225 92 -225 225c0 30 -20 50 -50 50h-105v115h105c30 0 50 20 50 50v390h130v-140c0 -36 24 -60 60 -60h195v-130h-195z" />
    <glyph glyph-name="tcaron" unicode="&#x165;" horiz-adv-x="495" 
d="M340 940h115v-235h-115v235zM280 500c-48 0 -80 -32 -80 -80v-175c0 -69 46 -115 115 -115h140v-130h-140c-147 0 -245 98 -245 245v585h130v-120c0 -48 32 -80 80 -80h175v-130h-175z" />
    <glyph glyph-name="uni0163" unicode="&#x163;" horiz-adv-x="495" 
d="M280 500c-48 0 -80 -32 -80 -80v-175c0 -69 46 -115 115 -115h140v-360h-220v115h60c27 0 45 18 45 45v70h-25c-147 0 -245 98 -245 245v585h130v-120c0 -48 32 -80 80 -80h175v-130h-175z" />
    <glyph glyph-name="uni021B" unicode="&#x21b;" horiz-adv-x="495" 
d="M280 500c-48 0 -80 -32 -80 -80v-175c0 -69 46 -115 115 -115h140v-130h-140c-147 0 -245 98 -245 245v585h130v-120c0 -48 32 -80 80 -80h175v-130h-175zM340 -75h115v-50c0 -111 -74 -185 -185 -185h-110v115h110c42 0 70 28 70 70v50z" />
    <glyph glyph-name="u" unicode="u" horiz-adv-x="630" 
d="M310 0c-145 0 -240 95 -240 240v390h130v-390c0 -67 43 -110 110 -110s110 43 110 110v390h130v-630h-240z" />
    <glyph glyph-name="uacute" unicode="&#xfa;" horiz-adv-x="630" 
d="M435 940h115v-50c0 -111 -74 -185 -185 -185h-110v115h110c42 0 70 28 70 70v50zM310 0c-145 0 -240 95 -240 240v390h130v-390c0 -67 43 -110 110 -110s110 43 110 110v390h130v-630h-240z" />
    <glyph glyph-name="ucircumflex" unicode="&#xfb;" horiz-adv-x="630" 
d="M428 940l67 -235h-120l-32 113c-4 13 -17 22 -33 22s-29 -9 -32 -22l-33 -113h-120l67 235h236zM310 0c-145 0 -240 95 -240 240v390h130v-390c0 -67 43 -110 110 -110s110 43 110 110v390h130v-630h-240z" />
    <glyph glyph-name="udieresis" unicode="&#xfc;" horiz-adv-x="630" 
d="M265 860v-120h-150v120h150zM505 860v-120h-150v120h150zM310 0c-145 0 -240 95 -240 240v390h130v-390c0 -67 43 -110 110 -110s110 43 110 110v390h130v-630h-240z" />
    <glyph glyph-name="ugrave" unicode="&#xf9;" horiz-adv-x="630" 
d="M185 940v-50c0 -42 28 -70 70 -70h110v-115h-110c-111 0 -185 74 -185 185v50h115zM310 0c-145 0 -240 95 -240 240v390h130v-390c0 -67 43 -110 110 -110s110 43 110 110v390h130v-630h-240z" />
    <glyph glyph-name="uhungarumlaut" unicode="&#x171;" horiz-adv-x="630" 
d="M245 940h115v-50c0 -111 -74 -185 -185 -185h-110v115h110c42 0 70 28 70 70v50zM435 940h115v-235h-115v235zM310 0c-145 0 -240 95 -240 240v390h130v-390c0 -67 43 -110 110 -110s110 43 110 110v390h130v-630h-240z" />
    <glyph glyph-name="umacron" unicode="&#x16b;" horiz-adv-x="630" 
d="M510 725h-400v115h400v-115zM310 0c-145 0 -240 95 -240 240v390h130v-390c0 -67 43 -110 110 -110s110 43 110 110v390h130v-630h-240z" />
    <glyph glyph-name="uogonek" unicode="&#x173;" horiz-adv-x="630" 
d="M595 -115h60v-115h-220v230h-125c-145 0 -240 95 -240 240v390h130v-390c0 -67 43 -110 110 -110s110 43 110 110v390h130v-700c0 -27 18 -45 45 -45z" />
    <glyph glyph-name="uring" unicode="&#x16f;" horiz-adv-x="630" 
d="M310 1000c93 0 155 -62 155 -155s-62 -155 -155 -155s-155 62 -155 155s62 155 155 155zM310 893c-28 0 -47 -19 -47 -48c0 -28 19 -47 47 -47c29 0 48 19 48 47c0 29 -19 48 -48 48zM310 0c-145 0 -240 95 -240 240v390h130v-390c0 -67 43 -110 110 -110s110 43 110 110
v390h130v-630h-240z" />
    <glyph glyph-name="v" unicode="v" 
d="M468 630h132l-112 -630h-335l-113 630h132l78 -437c7 -38 35 -63 70 -63s63 25 70 63z" />
    <glyph glyph-name="w" unicode="w" horiz-adv-x="920" 
d="M748 630h132l-112 -630h-615l-113 630h132l78 -437c7 -38 35 -63 70 -63c53 0 82 34 73 84l-73 416h132l78 -437c7 -38 35 -63 70 -63s63 25 70 63z" />
    <glyph glyph-name="wacute" unicode="&#x1e83;" horiz-adv-x="930" 
d="M505 940h115v-50c0 -111 -74 -185 -185 -185h-110v115h110c42 0 70 28 70 70v50zM748 630h132l-112 -630h-615l-113 630h132l78 -437c7 -38 35 -63 70 -63c53 0 82 34 73 84l-73 416h132l78 -437c7 -38 35 -63 70 -63s63 25 70 63z" />
    <glyph glyph-name="wcircumflex" unicode="&#x175;" horiz-adv-x="930" 
d="M725 940l68 -235h-120l-33 113c-4 13 -17 22 -32 22c-16 0 -29 -9 -33 -22l-33 -113h-119l67 235h235zM748 630h132l-112 -630h-615l-113 630h132l78 -437c7 -38 35 -63 70 -63c53 0 82 34 73 84l-73 416h132l78 -437c7 -38 35 -63 70 -63s63 25 70 63z" />
    <glyph glyph-name="wdieresis" unicode="&#x1e85;" horiz-adv-x="930" 
d="M563 860v-120h-150v120h150zM803 860v-120h-150v120h150zM748 630h132l-112 -630h-615l-113 630h132l78 -437c7 -38 35 -63 70 -63c53 0 82 34 73 84l-73 416h132l78 -437c7 -38 35 -63 70 -63s63 25 70 63z" />
    <glyph glyph-name="wgrave" unicode="&#x1e81;" horiz-adv-x="930" 
d="M275 940v-50c0 -42 28 -70 70 -70h110v-115h-110c-111 0 -185 74 -185 185v50h115zM748 630h132l-112 -630h-615l-113 630h132l78 -437c7 -38 35 -63 70 -63c53 0 82 34 73 84l-73 416h132l78 -437c7 -38 35 -63 70 -63s63 25 70 63z" />
    <glyph glyph-name="x" unicode="x" 
d="M528 223l77 -223h-135l-71 198c-13 37 -45 62 -79 62s-66 -25 -79 -62l-70 -198h-136l78 223c10 29 17 70 17 102c0 29 -7 70 -17 103l-68 202h136l60 -178c13 -37 45 -62 79 -62s66 25 79 62l61 178h135l-67 -202c-11 -31 -18 -72 -18 -103c0 -32 7 -73 18 -102z" />
    <glyph glyph-name="y" unicode="y" horiz-adv-x="610" 
d="M437 630h133l-153 -860h-133l51 285c9 51 -19 85 -70 85h-190v490h130v-270c0 -54 36 -90 90 -90c46 0 83 33 93 83z" />
    <glyph glyph-name="yacute" unicode="&#xfd;" horiz-adv-x="610" 
d="M455 940h115v-50c0 -111 -74 -185 -185 -185h-110v115h110c42 0 70 28 70 70v50zM437 630h133l-153 -860h-133l51 285c9 51 -19 85 -70 85h-190v490h130v-270c0 -54 36 -90 90 -90c46 0 83 33 93 83z" />
    <glyph glyph-name="ycircumflex" unicode="&#x177;" horiz-adv-x="610" 
d="M443 940l67 -235h-120l-32 113c-4 13 -17 22 -33 22s-29 -9 -32 -22l-33 -113h-120l67 235h236zM437 630h133l-153 -860h-133l51 285c9 51 -19 85 -70 85h-190v490h130v-270c0 -54 36 -90 90 -90c46 0 83 33 93 83z" />
    <glyph glyph-name="ydieresis" unicode="&#xff;" horiz-adv-x="610" 
d="M273 860v-120h-150v120h150zM513 860v-120h-150v120h150zM437 630h133l-153 -860h-133l51 285c9 51 -19 85 -70 85h-190v490h130v-270c0 -54 36 -90 90 -90c46 0 83 33 93 83z" />
    <glyph glyph-name="ygrave" unicode="&#x1ef3;" horiz-adv-x="610" 
d="M190 940v-50c0 -42 28 -70 70 -70h110v-115h-110c-111 0 -185 74 -185 185v50h115zM437 630h133l-153 -860h-133l51 285c9 51 -19 85 -70 85h-190v490h130v-270c0 -54 36 -90 90 -90c46 0 83 33 93 83z" />
    <glyph glyph-name="z" unicode="z" horiz-adv-x="575" 
d="M330 380c36 0 60 24 60 60s-24 60 -60 60h-255v130h445v-190c0 -115 -76 -190 -190 -190h-80c-36 0 -60 -24 -60 -60s24 -60 60 -60h248v-130h-423v380h255z" />
    <glyph glyph-name="zacute" unicode="&#x17a;" horiz-adv-x="575" 
d="M259 940h115v-50c0 -111 -74 -185 -185 -185h-110v115h110c42 0 70 28 70 70v50zM330 380c36 0 60 24 60 60s-24 60 -60 60h-255v130h445v-190c0 -115 -76 -190 -190 -190h-80c-36 0 -60 -24 -60 -60s24 -60 60 -60h248v-130h-423v380h255z" />
    <glyph glyph-name="zcaron" unicode="&#x17e;" horiz-adv-x="575" 
d="M415 705h-235l-67 235h119l33 -112c4 -14 17 -23 33 -23c15 0 28 9 32 23l33 112h120zM330 380c36 0 60 24 60 60s-24 60 -60 60h-255v130h445v-190c0 -115 -76 -190 -190 -190h-80c-36 0 -60 -24 -60 -60s24 -60 60 -60h248v-130h-423v380h255z" />
    <glyph glyph-name="zdotaccent" unicode="&#x17c;" horiz-adv-x="575" 
d="M373 860v-120h-150v120h150zM330 380c36 0 60 24 60 60s-24 60 -60 60h-255v130h445v-190c0 -115 -76 -190 -190 -190h-80c-36 0 -60 -24 -60 -60s24 -60 60 -60h248v-130h-423v380h255z" />
    <glyph glyph-name="ordfeminine" unicode="&#xaa;" horiz-adv-x="550" 
d="M465 860v-575h-242c-104 0 -173 69 -173 173c0 103 69 172 173 172h70c34 0 57 23 57 58c0 34 -23 57 -57 57h-203v115h375zM308 400c34 0 57 23 57 58c0 34 -23 57 -57 57h-85c-35 0 -58 -23 -58 -57c0 -35 23 -58 58 -58h85z" />
    <glyph glyph-name="ordmasculine" unicode="&#xba;" horiz-adv-x="570" 
d="M510 650v-155c0 -135 -90 -225 -225 -225s-225 90 -225 225v155c0 135 90 225 225 225s225 -90 225 -225zM395 495v155c0 66 -44 110 -110 110s-110 -44 -110 -110v-155c0 -66 44 -110 110 -110s110 44 110 110z" />
    <glyph glyph-name="zero" unicode="0" 
d="M320 875c150 0 250 -100 250 -250v-390c0 -150 -100 -250 -250 -250s-250 100 -250 250v390c0 150 100 250 250 250zM440 235v390c0 72 -48 120 -120 120s-120 -48 -120 -120v-390c0 -72 48 -120 120 -120s120 48 120 120z" />
    <glyph glyph-name="one" unicode="1" horiz-adv-x="545" 
d="M325 860h130v-860h-130v500h-285v130h145c84 0 140 56 140 140v90z" />
    <glyph glyph-name="two" unicode="2" horiz-adv-x="810" 
d="M200 210c0 -48 32 -80 80 -80h445v-130h-640v420h430c48 0 80 32 80 80v55c0 114 -76 190 -190 190s-190 -76 -190 -190h-130c0 192 128 320 320 320s320 -128 320 -320v-265h-445c-48 0 -80 -32 -80 -80z" />
    <glyph glyph-name="three" unicode="3" horiz-adv-x="710" 
d="M415 510c153 0 255 -102 255 -255s-102 -255 -255 -255h-345v130h345c75 0 125 50 125 125s-50 125 -125 125h-345v130h120c66 0 110 44 110 110s-44 110 -110 110h-120v130h345v-350z" />
    <glyph glyph-name="four" unicode="4" horiz-adv-x="590" 
d="M370 860h130v-860h-130v270c0 48 -32 80 -80 80h-210v510h130v-307c0 -48 32 -80 80 -80s80 32 80 80v307z" />
    <glyph glyph-name="five" unicode="5" horiz-adv-x="810" 
d="M200 650c0 -48 32 -80 80 -80h445v-265c0 -192 -128 -320 -320 -320s-320 128 -320 320h130c0 -114 76 -190 190 -190s190 76 190 190v55c0 48 -32 80 -80 80h-430v420h640v-130h-445c-48 0 -80 -32 -80 -80z" />
    <glyph glyph-name="six" unicode="6" horiz-adv-x="690" 
d="M330 730c-69 0 -115 -46 -115 -115s46 -115 115 -115h270v-500h-500v860h500v-130h-270zM350 370c-72 0 -120 -48 -120 -120s48 -120 120 -120s120 48 120 120s-48 120 -120 120z" />
    <glyph glyph-name="seven" unicode="7" horiz-adv-x="680" 
d="M428 570c48 0 80 32 80 80s-32 80 -80 80h-423v130h610v-420h-187c-48 0 -80 -35 -80 -80v-360h-130v570h210z" />
    <glyph glyph-name="eight" unicode="8" horiz-adv-x="1070" 
d="M775 510c153 0 255 -102 255 -255s-102 -255 -255 -255h-480c-153 0 -255 102 -255 255s102 255 255 255v350h480v-350zM535 745c-75 0 -125 -50 -125 -125s50 -125 125 -125s125 50 125 125s-50 125 -125 125zM295 130h480c75 0 125 50 125 125s-50 125 -125 125h-480
c-75 0 -125 -50 -125 -125s50 -125 125 -125z" />
    <glyph glyph-name="nine" unicode="9" horiz-adv-x="690" 
d="M360 130c69 0 115 46 115 115s-46 115 -115 115h-270v500h500v-860h-500v130h270zM340 490c72 0 120 48 120 120s-48 120 -120 120s-120 -48 -120 -120s48 -120 120 -120z" />
    <glyph glyph-name="zero.osf" horiz-adv-x="580" 
d="M500 630v-630h-420v630h420zM370 195v240c0 48 -32 80 -80 80s-80 -32 -80 -80v-240c0 -48 32 -80 80 -80s80 32 80 80z" />
    <glyph glyph-name="one.osf" horiz-adv-x="440" 
d="M230 630h130v-630h-130v350h-200v130h90c66 0 110 44 110 110v40z" />
    <glyph glyph-name="two.osf" horiz-adv-x="545" 
d="M315 380c36 0 60 24 60 60s-24 60 -60 60h-235v130h235c114 0 190 -76 190 -190s-76 -190 -190 -190h-52c-36 0 -60 -24 -60 -60s24 -60 60 -60h217v-130h-400v380h235z" />
    <glyph glyph-name="three.osf" horiz-adv-x="620" 
d="M210 500h-140v130h315v-250c114 0 190 -76 190 -190s-76 -190 -190 -190h-315v130h315c36 0 60 24 60 60s-24 60 -60 60h-315v130h140c36 0 60 24 60 60s-24 60 -60 60z" />
    <glyph glyph-name="four.osf" horiz-adv-x="520" 
d="M310 630h130v-630h-130v190c0 36 -24 60 -60 60h-190v380h130v-205c0 -36 24 -60 60 -60s60 24 60 60v205z" />
    <glyph glyph-name="five.osf" horiz-adv-x="555" 
d="M315 250h-235v380h400v-130h-217c-36 0 -60 -24 -60 -60s24 -60 60 -60h52c114 0 190 -76 190 -190s-76 -190 -190 -190h-235v130h235c36 0 60 24 60 60s-24 60 -60 60z" />
    <glyph glyph-name="six.osf" horiz-adv-x="545" 
d="M85 630h380v-130h-197c-36 0 -60 -24 -60 -60s24 -60 60 -60h197v-380h-380v630zM275 115c45 0 75 30 75 75s-30 75 -75 75s-75 -30 -75 -75s30 -75 75 -75z" />
    <glyph glyph-name="seven.osf" horiz-adv-x="595" 
d="M353 380c36 0 60 24 60 60s-24 60 -60 60h-333v130h515v-380h-182c-36 0 -60 -24 -60 -60v-190h-130v380h190z" />
    <glyph glyph-name="eight.osf" horiz-adv-x="850" 
d="M615 380c114 0 190 -76 190 -190s-76 -190 -190 -190h-380c-114 0 -190 76 -190 190s76 190 190 190v250h380v-250zM425 515c-45 0 -75 -30 -75 -75s30 -75 75 -75s75 30 75 75s-30 75 -75 75zM615 130c36 0 60 24 60 60s-24 60 -60 60h-380c-36 0 -60 -24 -60 -60
s24 -60 60 -60h380z" />
    <glyph glyph-name="nine.osf" horiz-adv-x="545" 
d="M460 0h-380v130h198c36 0 60 24 60 60s-24 60 -60 60h-198v380h380v-630zM270 515c-45 0 -75 -30 -75 -75s30 -75 75 -75s75 30 75 75s-30 75 -75 75z" />
    <glyph glyph-name="uni2080" unicode="&#x2080;" horiz-adv-x="550" 
d="M470 575v-575h-390v575h390zM355 180v215c0 48 -32 80 -80 80s-80 -32 -80 -80v-215c0 -48 32 -80 80 -80s80 32 80 80z" />
    <glyph glyph-name="uni2081" unicode="&#x2081;" horiz-adv-x="405" 
d="M210 590h115v-575h-115v330h-180v115h90c54 0 90 36 90 90v40z" />
    <glyph glyph-name="uni2082" unicode="&#x2082;" horiz-adv-x="500" 
d="M288 345c34 0 57 23 57 58c0 34 -23 57 -57 57h-208v115h208c103 0 172 -69 172 -172c0 -104 -69 -173 -172 -173h-50c-35 0 -58 -23 -58 -57c0 -35 23 -58 58 -58h197v-115h-355v345h208z" />
    <glyph glyph-name="uni2083" unicode="&#x2083;" horiz-adv-x="560" 
d="M185 460h-115v115h273v-230c103 0 172 -69 172 -172c0 -104 -69 -173 -172 -173h-273v115h273c34 0 57 23 57 58c0 34 -23 57 -57 57h-273v115h115c35 0 58 23 58 58c0 34 -23 57 -58 57z" />
    <glyph glyph-name="uni2084" unicode="&#x2084;" horiz-adv-x="485" 
d="M290 575h115v-575h-115v188c0 34 -23 57 -57 57h-173v330h115v-172c0 -35 23 -58 58 -58c34 0 57 23 57 58v172z" />
    <glyph glyph-name="uni2085" unicode="&#x2085;" horiz-adv-x="500" 
d="M288 230h-208v345h355v-115h-197c-35 0 -58 -23 -58 -57c0 -35 23 -58 58 -58h50c103 0 172 -69 172 -172c0 -104 -69 -173 -172 -173h-208v115h208c34 0 57 23 57 58c0 34 -23 57 -57 57z" />
    <glyph glyph-name="uni2086" unicode="&#x2086;" horiz-adv-x="510" 
d="M85 575h345v-115h-180c-34 0 -57 -23 -57 -57c0 -35 23 -58 57 -58h180v-345h-345v575zM258 100c43 0 72 29 72 73c0 43 -29 72 -72 72c-44 0 -73 -29 -73 -72c0 -44 29 -73 73 -73z" />
    <glyph glyph-name="uni2087" unicode="&#x2087;" horiz-adv-x="545" 
d="M320 345c35 0 58 23 58 58c0 34 -23 57 -58 57h-300v115h465v-345h-165c-34 0 -57 -23 -57 -57v-173h-115v345h172z" />
    <glyph glyph-name="uni2088" unicode="&#x2088;" horiz-adv-x="765" 
d="M563 345c94 0 157 -69 157 -172c0 -104 -63 -173 -157 -173h-345c-104 0 -173 69 -173 173c0 103 69 172 173 172v230h345v-230zM390 475c-43 0 -72 -29 -72 -72c0 -44 29 -73 72 -73c44 0 73 29 73 73c0 43 -29 72 -73 72zM563 115c34 0 57 23 57 58c0 34 -23 57 -57 57
h-345c-35 0 -58 -23 -58 -57c0 -35 23 -58 58 -58h345z" />
    <glyph glyph-name="uni2089" unicode="&#x2089;" horiz-adv-x="510" 
d="M425 0h-345v115h180c35 0 58 23 58 58c0 34 -23 57 -58 57h-180v345h345v-575zM253 475c-44 0 -73 -29 -73 -72c0 -44 29 -73 73 -73c43 0 72 29 72 73c0 43 -29 72 -72 72z" />
    <glyph glyph-name="uni2070" unicode="&#x2070;" horiz-adv-x="550" 
d="M470 860v-575h-390v575h390zM355 465v215c0 48 -32 80 -80 80s-80 -32 -80 -80v-215c0 -48 32 -80 80 -80s80 32 80 80z" />
    <glyph glyph-name="uni00B9" unicode="&#xb9;" horiz-adv-x="405" 
d="M210 860h115v-575h-115v330h-180v115h90c54 0 90 36 90 90v40z" />
    <glyph glyph-name="uni00B2" unicode="&#xb2;" horiz-adv-x="500" 
d="M288 630c34 0 57 23 57 58c0 34 -23 57 -57 57h-208v115h208c103 0 172 -69 172 -172c0 -104 -69 -173 -172 -173h-50c-35 0 -58 -23 -58 -57c0 -35 23 -58 58 -58h197v-115h-355v345h208z" />
    <glyph glyph-name="uni00B3" unicode="&#xb3;" horiz-adv-x="560" 
d="M185 745h-115v115h273v-230c103 0 172 -69 172 -172c0 -104 -69 -173 -172 -173h-273v115h273c34 0 57 23 57 58c0 34 -23 57 -57 57h-273v115h115c35 0 58 23 58 58c0 34 -23 57 -58 57z" />
    <glyph glyph-name="uni2074" unicode="&#x2074;" horiz-adv-x="485" 
d="M290 860h115v-575h-115v188c0 34 -23 57 -57 57h-173v330h115v-172c0 -35 23 -58 58 -58c34 0 57 23 57 58v172z" />
    <glyph glyph-name="uni2075" unicode="&#x2075;" horiz-adv-x="500" 
d="M288 515h-208v345h355v-115h-197c-35 0 -58 -23 -58 -57c0 -35 23 -58 58 -58h50c103 0 172 -69 172 -172c0 -104 -69 -173 -172 -173h-208v115h208c34 0 57 23 57 58c0 34 -23 57 -57 57z" />
    <glyph glyph-name="uni2076" unicode="&#x2076;" horiz-adv-x="510" 
d="M85 860h345v-115h-180c-34 0 -57 -23 -57 -57c0 -35 23 -58 57 -58h180v-345h-345v575zM258 385c43 0 72 29 72 73c0 43 -29 72 -72 72c-44 0 -73 -29 -73 -72c0 -44 29 -73 73 -73z" />
    <glyph glyph-name="uni2077" unicode="&#x2077;" horiz-adv-x="545" 
d="M320 630c35 0 58 23 58 58c0 34 -23 57 -58 57h-300v115h465v-345h-165c-34 0 -57 -23 -57 -57v-173h-115v345h172z" />
    <glyph glyph-name="uni2078" unicode="&#x2078;" horiz-adv-x="765" 
d="M563 630c94 0 157 -69 157 -172c0 -104 -63 -173 -157 -173h-345c-104 0 -173 69 -173 173c0 103 69 172 173 172v230h345v-230zM390 760c-43 0 -72 -29 -72 -72c0 -44 29 -73 72 -73c44 0 73 29 73 73c0 43 -29 72 -73 72zM563 400c34 0 57 23 57 58c0 34 -23 57 -57 57
h-345c-35 0 -58 -23 -58 -57c0 -35 23 -58 58 -58h345z" />
    <glyph glyph-name="uni2079" unicode="&#x2079;" horiz-adv-x="510" 
d="M425 285h-345v115h180c35 0 58 23 58 58c0 34 -23 57 -58 57h-180v345h345v-575zM253 760c-44 0 -73 -29 -73 -72c0 -44 29 -73 73 -73c43 0 72 29 72 73c0 43 -29 72 -72 72z" />
    <glyph glyph-name="fraction" unicode="&#x2044;" horiz-adv-x="315" 
d="M174 860h116l-149 -860h-116z" />
    <glyph glyph-name="onehalf" unicode="&#xbd;" horiz-adv-x="1180" 
d="M210 860h115v-575h-115v330h-180v115h90c54 0 90 36 90 90v40zM559 860h116l-149 -860h-116zM968 345c34 0 57 23 57 58c0 34 -23 57 -57 57h-208v115h208c103 0 172 -69 172 -172c0 -104 -69 -173 -172 -173h-50c-35 0 -58 -23 -58 -57c0 -35 23 -58 58 -58h197v-115
h-355v345h208z" />
    <glyph glyph-name="uni2153" unicode="&#x2153;" horiz-adv-x="1240" 
d="M210 860h115v-575h-115v330h-180v115h90c54 0 90 36 90 90v40zM559 860h116l-149 -860h-116zM865 460h-115v115h273v-230c103 0 172 -69 172 -172c0 -104 -69 -173 -172 -173h-273v115h273c34 0 57 23 57 58c0 34 -23 57 -57 57h-273v115h115c35 0 58 23 58 58
c0 34 -23 57 -58 57z" />
    <glyph glyph-name="uni2154" unicode="&#x2154;" horiz-adv-x="1335" 
d="M288 630c34 0 57 23 57 58c0 34 -23 57 -57 57h-208v115h208c103 0 172 -69 172 -172c0 -104 -69 -173 -172 -173h-50c-35 0 -58 -23 -58 -57c0 -35 23 -58 58 -58h197v-115h-355v345h208zM654 860h116l-149 -860h-116zM960 460h-115v115h273v-230
c103 0 172 -69 172 -172c0 -104 -69 -173 -172 -173h-273v115h273c34 0 57 23 57 58c0 34 -23 57 -57 57h-273v115h115c35 0 58 23 58 58c0 34 -23 57 -58 57z" />
    <glyph glyph-name="onequarter" unicode="&#xbc;" horiz-adv-x="1165" 
d="M210 860h115v-575h-115v330h-180v115h90c54 0 90 36 90 90v40zM559 860h116l-149 -860h-116zM970 575h115v-575h-115v188c0 34 -23 57 -57 57h-173v330h115v-172c0 -35 23 -58 58 -58c34 0 57 23 57 58v172z" />
    <glyph glyph-name="threequarters" unicode="&#xbe;" horiz-adv-x="1320" 
d="M185 745h-115v115h273v-230c103 0 172 -69 172 -172c0 -104 -69 -173 -172 -173h-273v115h273c34 0 57 23 57 58c0 34 -23 57 -57 57h-273v115h115c35 0 58 23 58 58c0 34 -23 57 -58 57zM714 860h116l-149 -860h-116zM1125 575h115v-575h-115v188c0 34 -23 57 -57 57
h-173v330h115v-172c0 -35 23 -58 58 -58c34 0 57 23 57 58v172z" />
    <glyph glyph-name="period" unicode="." horiz-adv-x="285" 
d="M225 150v-150h-165v150h165z" />
    <glyph glyph-name="comma" unicode="," horiz-adv-x="285" 
d="M60 150h165v-190c0 -84 -56 -140 -140 -140h-75v100h75c24 0 40 16 40 40s-16 40 -40 40h-25v150z" />
    <glyph glyph-name="colon" unicode=":" horiz-adv-x="305" 
d="M235 630v-150h-165v150h165zM235 150v-150h-165v150h165z" />
    <glyph glyph-name="semicolon" unicode=";" horiz-adv-x="305" 
d="M235 630v-150h-165v150h165zM70 150h165v-190c0 -84 -56 -140 -140 -140h-75v100h75c24 0 40 16 40 40s-16 40 -40 40h-25v150z" />
    <glyph glyph-name="ellipsis" unicode="&#x2026;" horiz-adv-x="825" 
d="M225 150v-150h-165v150h165zM495 150v-150h-165v150h165zM765 150v-150h-165v150h165z" />
    <glyph glyph-name="exclam" unicode="!" horiz-adv-x="300" 
d="M85 255v605h130v-605h-130zM75 0v120h150v-120h-150z" />
    <glyph glyph-name="exclamdown" unicode="&#xa1;" horiz-adv-x="300" 
d="M225 630v-120h-150v120h150zM215 375v-605h-130v605h130z" />
    <glyph glyph-name="question" unicode="?" horiz-adv-x="655" 
d="M85 860h495v-495h-190c-30 0 -50 -20 -50 -50v-60h-130v240h130c75 0 125 50 125 125s-50 125 -125 125s-125 -50 -125 -125v-5h-130v245zM200 0v120h150v-120h-150z" />
    <glyph glyph-name="questiondown" unicode="&#xbf;" horiz-adv-x="655" 
d="M455 630v-120h-150v120h150zM570 -230h-495v495h190c30 0 50 20 50 50v60h130v-240h-130c-75 0 -125 -50 -125 -125s50 -125 125 -125s125 50 125 125v5h130v-245z" />
    <glyph glyph-name="periodcentered" unicode="&#xb7;" horiz-adv-x="320" 
d="M250 315c0 54 -36 90 -90 90s-90 -36 -90 -90s36 -90 90 -90s90 36 90 90z" />
    <glyph glyph-name="bullet" unicode="&#x2022;" horiz-adv-x="440" 
d="M365 315c0 87 -58 145 -145 145s-145 -58 -145 -145s58 -145 145 -145s145 58 145 145z" />
    <glyph glyph-name="asterisk" unicode="*" 
d="M427 556c0 -9 5 -20 10 -27l84 -115l-80 -60l-85 116c-9 13 -24 21 -36 21c-13 0 -27 -8 -36 -21l-85 -116l-80 60l85 115c4 7 9 18 9 27c0 17 -13 32 -33 40l-125 46l35 95l125 -46c33 -12 55 2 55 35v134h100v-134c0 -33 22 -47 55 -35l125 46l35 -95l-124 -46
c-21 -8 -34 -23 -34 -40z" />
    <glyph glyph-name="numbersign" unicode="#" horiz-adv-x="1100" 
d="M774 468l-18 -65c-8 -29 7 -48 38 -48h142v-115h-173c-30 0 -55 -18 -63 -47l-51 -193h-120l51 193c8 29 -7 47 -37 47h-91c-29 0 -54 -18 -62 -47l-52 -193h-119l51 193c8 29 -7 47 -37 47h-143v115h174c29 0 54 19 62 48l18 65c8 28 -7 47 -37 47h-143v115h174
c29 0 54 18 62 48l49 182h120l-49 -182c-8 -30 7 -48 37 -48h91c30 0 54 18 62 48l50 182h119l-49 -182c-8 -30 7 -48 38 -48h142v-115h-173c-30 0 -55 -19 -63 -47zM654 468c8 28 -9 47 -39 47h-89c-29 0 -54 -19 -62 -47l-18 -65c-8 -29 7 -48 37 -48h91c30 0 55 19 62 48
z" />
    <glyph glyph-name="slash" unicode="/" horiz-adv-x="375" 
d="M214 900h116l-169 -940h-116z" />
    <glyph glyph-name="backslash" unicode="\" horiz-adv-x="375" 
d="M161 900l169 -940h-116l-169 940h116z" />
    <glyph glyph-name="parenleft" unicode="(" horiz-adv-x="445" 
d="M380 697c-118 -72 -197 -225 -197 -382s79 -310 197 -382v-138c-192 94 -320 302 -320 520s128 426 320 520v-138z" />
    <glyph glyph-name="parenright" unicode=")" horiz-adv-x="445" 
d="M65 697v138c192 -94 320 -302 320 -520s-128 -426 -320 -520v138c119 72 198 225 198 382s-79 310 -198 382z" />
    <glyph glyph-name="braceleft" unicode="{" horiz-adv-x="525" 
d="M378 695c-48 0 -80 -32 -80 -80v-600c0 -48 32 -80 80 -80h127v-123h-127c-122 0 -203 81 -203 203v159c0 48 -32 80 -80 80h-75v122h75c48 0 80 32 80 80v159c0 122 81 203 203 203h127v-123h-127z" />
    <glyph glyph-name="braceright" unicode="}" horiz-adv-x="525" 
d="M148 695h-128v123h128c121 0 202 -81 202 -203v-159c0 -48 32 -80 80 -80h75v-122h-75c-48 0 -80 -32 -80 -80v-159c0 -122 -81 -203 -202 -203h-128v123h128c48 0 80 32 80 80v600c0 48 -32 80 -80 80z" />
    <glyph glyph-name="bracketleft" unicode="[" horiz-adv-x="445" 
d="M298 688c-48 0 -80 -32 -80 -80v-585c0 -49 32 -81 80 -81h127v-122h-330v990h330v-122h-127z" />
    <glyph glyph-name="bracketright" unicode="]" horiz-adv-x="445" 
d="M148 688h-128v122h330v-990h-330v122h128c48 0 80 32 80 81v585c0 48 -32 80 -80 80z" />
    <glyph glyph-name="hyphen" unicode="-" horiz-adv-x="340" 
d="M305 265h-270v115h270v-115z" />
    <glyph glyph-name="endash" unicode="&#x2013;" horiz-adv-x="560" 
d="M550 265h-540v115h540v-115z" />
    <glyph glyph-name="emdash" unicode="&#x2014;" horiz-adv-x="1020" 
d="M1010 265h-1000v115h1000v-115z" />
    <glyph glyph-name="underscore" unicode="_" horiz-adv-x="560" 
d="M550 -195h-540v115h540v-115z" />
    <glyph glyph-name="quotesinglbase" unicode="&#x201a;" horiz-adv-x="315" 
d="M90 150h165v-190c0 -84 -56 -140 -140 -140h-75v100h75c24 0 40 16 40 40s-16 40 -40 40h-25v150z" />
    <glyph glyph-name="quotedblbase" unicode="&#x201e;" horiz-adv-x="605" 
d="M90 150h165v-190c0 -84 -56 -140 -140 -140h-75v100h75c24 0 40 16 40 40s-16 40 -40 40h-25v150zM380 150h165v-190c0 -84 -56 -140 -140 -140h-75v100h75c24 0 40 16 40 40s-16 40 -40 40h-25v150z" />
    <glyph glyph-name="quotedblleft" unicode="&#x201c;" horiz-adv-x="605" 
d="M225 630h-165v190c0 84 56 140 140 140h75v-100h-75c-24 0 -40 -16 -40 -40s16 -40 40 -40h25v-150zM515 630h-165v190c0 84 56 140 140 140h75v-100h-75c-24 0 -40 -16 -40 -40s16 -40 40 -40h25v-150z" />
    <glyph glyph-name="quotedblright" unicode="&#x201d;" horiz-adv-x="625" 
d="M110 860h165v-190c0 -84 -56 -140 -140 -140h-75v100h75c24 0 40 16 40 40s-16 40 -40 40h-25v150zM400 860h165v-190c0 -84 -56 -140 -140 -140h-75v100h75c24 0 40 16 40 40s-16 40 -40 40h-25v150z" />
    <glyph glyph-name="quoteleft" unicode="&#x2018;" horiz-adv-x="315" 
d="M225 630h-165v190c0 84 56 140 140 140h75v-100h-75c-24 0 -40 -16 -40 -40s16 -40 40 -40h25v-150z" />
    <glyph glyph-name="quoteright" unicode="&#x2019;" horiz-adv-x="335" 
d="M110 860h165v-190c0 -84 -56 -140 -140 -140h-75v100h75c24 0 40 16 40 40s-16 40 -40 40h-25v150z" />
    <glyph glyph-name="guillemotleft" unicode="&#xab;" horiz-adv-x="630" 
d="M173 320c0 -25 11 -56 27 -77l115 -158h-150l-115 155v161l115 154h150l-115 -157c-16 -22 -27 -53 -27 -78zM458 320c0 -25 11 -56 27 -77l115 -158h-150l-115 155v161l115 154h150l-115 -157c-16 -22 -27 -53 -27 -78z" />
    <glyph glyph-name="guillemotright" unicode="&#xbb;" horiz-adv-x="630" 
d="M173 320c0 25 -11 56 -28 78l-115 157h150l115 -154v-161l-115 -155h-150l115 158c17 21 28 52 28 77zM458 320c0 25 -11 56 -28 78l-115 157h150l115 -154v-161l-115 -155h-150l115 158c17 21 28 52 28 77z" />
    <glyph glyph-name="guilsinglleft" unicode="&#x2039;" horiz-adv-x="345" 
d="M173 320c0 -25 11 -56 27 -77l115 -158h-150l-115 155v161l115 154h150l-115 -157c-16 -22 -27 -53 -27 -78z" />
    <glyph glyph-name="guilsinglright" unicode="&#x203a;" horiz-adv-x="345" 
d="M173 320c0 25 -11 56 -28 78l-115 157h150l115 -154v-161l-115 -155h-150l115 158c17 21 28 52 28 77z" />
    <glyph glyph-name="quotedbl" unicode="&#x22;" horiz-adv-x="475" 
d="M190 860v-360h-115v360h115zM400 860v-360h-115v360h115z" />
    <glyph glyph-name="quotesingle" unicode="'" horiz-adv-x="265" 
d="M190 860v-360h-115v360h115z" />
    <glyph glyph-name="uni00A0" unicode="&#xa0;" horiz-adv-x="170" 
 />
    <glyph glyph-name="uni2009" unicode="&#x2009;" horiz-adv-x="170" 
 />
    <glyph glyph-name="cent" unicode="&#xa2;" horiz-adv-x="705" 
d="M475 780v-90c0 -36 24 -60 60 -60h100v-130h-100c-36 0 -60 -24 -60 -60v-250c0 -36 24 -60 60 -60h100v-130h-100c-36 0 -60 -24 -60 -60v-90h-130v90c0 36 -24 60 -60 60h-190v630h190c36 0 60 24 60 60v90h130zM285 500c-36 0 -60 -24 -60 -60v-250
c0 -36 24 -60 60 -60s60 24 60 60v250c0 36 -24 60 -60 60z" />
    <glyph glyph-name="currency" unicode="&#xa4;" horiz-adv-x="910" 
d="M460 763c43 0 93 -22 126 -55c10 -10 24 -16 35 -16s25 6 35 16l102 102l82 -82l-102 -102c-10 -10 -16 -24 -16 -35s6 -25 16 -35c33 -33 55 -83 55 -126c0 -42 -22 -93 -55 -126c-10 -9 -16 -23 -16 -35c0 -11 6 -25 16 -35l102 -102l-82 -82l-102 102
c-10 10 -24 17 -35 17s-25 -7 -35 -17c-33 -32 -83 -54 -126 -54c-42 0 -93 22 -126 54c-9 10 -23 17 -35 17c-11 0 -25 -7 -35 -17l-102 -102l-82 82l102 102c10 10 17 24 17 35c0 12 -7 26 -17 35c-32 33 -54 84 -54 126c0 43 22 93 54 126c10 10 17 24 17 35
s-7 25 -17 35l-102 102l82 82l102 -102c10 -10 24 -16 35 -16c12 0 26 6 35 16c33 33 84 55 126 55zM460 648c-15 0 -33 -8 -45 -21l-152 -152c-12 -12 -20 -30 -20 -45s8 -33 20 -45l152 -152c12 -12 30 -20 45 -20s33 8 45 20l152 152c13 12 21 30 21 45s-8 33 -21 45
l-152 152c-12 13 -30 21 -45 21z" />
    <glyph glyph-name="dollar" unicode="$" horiz-adv-x="820" 
d="M470 1010v-80c0 -42 28 -70 70 -70h200v-130h-200c-42 0 -70 -28 -70 -70v-90c0 -42 28 -70 70 -70h200v-500h-200c-42 0 -70 -28 -70 -70v-80h-115v80c0 42 -28 70 -70 70h-180v130h180c42 0 70 28 70 70v100c0 42 -28 70 -70 70c-120 0 -200 80 -200 200v90
c0 120 80 200 200 200c42 0 70 28 70 70v80h115zM285 730c-42 0 -70 -28 -70 -70v-90c0 -42 28 -70 70 -70s70 28 70 70v90c0 42 -28 70 -70 70zM540 370c-42 0 -70 -28 -70 -70v-100c0 -42 28 -70 70 -70s70 28 70 70v100c0 42 -28 70 -70 70z" />
    <glyph glyph-name="Euro" unicode="&#x20ac;" horiz-adv-x="750" 
d="M450 730c-51 0 -85 -34 -85 -85c0 -30 20 -50 50 -50h165v-115h-165c-30 0 -50 -20 -50 -50s20 -50 50 -50h165v-115h-165c-30 0 -50 -20 -50 -50c0 -51 34 -85 85 -85h230v-130h-230c-129 0 -215 86 -215 215c0 30 -20 50 -50 50h-105v115h105c30 0 50 20 50 50
s-20 50 -50 50h-105v115h105c30 0 50 20 50 50c0 129 86 215 215 215h230v-130h-230z" />
    <glyph glyph-name="sterling" unicode="&#xa3;" horiz-adv-x="825" 
d="M360 205c0 -45 30 -75 75 -75h320v-130h-680v130h80c45 0 75 30 75 75s-30 75 -75 75h-80v115h80c45 0 75 30 75 75v145c0 156 106 260 265 260c156 0 260 -104 260 -260h-130c0 78 -52 130 -130 130c-81 0 -135 -52 -135 -130v-145c0 -45 30 -75 75 -75h170v-115h-170
c-45 0 -75 -30 -75 -75z" />
    <glyph glyph-name="yen" unicode="&#xa5;" horiz-adv-x="855" 
d="M640 612c-15 -37 -1 -62 33 -62h112v-115h-237c-30 0 -50 -20 -50 -50s20 -50 50 -50h237v-115h-237c-30 0 -50 -20 -50 -50v-170h-130v170c0 30 -20 50 -50 50h-238v115h238c30 0 50 20 50 50s-20 50 -50 50h-238v115h112c34 0 47 25 33 62l-92 248h139l99 -263
c10 -28 35 -47 62 -47c26 0 51 19 62 47l98 263h139z" />
    <glyph glyph-name="plus" unicode="+" horiz-adv-x="660" 
d="M438 483h142v-115h-142c-30 0 -50 -20 -50 -50v-143h-115v143c0 30 -20 50 -50 50h-143v115h143c30 0 50 20 50 50v142h115v-142c0 -30 20 -50 50 -50z" />
    <glyph glyph-name="minus" unicode="&#x2212;" horiz-adv-x="660" 
d="M580 368h-500v115h500v-115z" />
    <glyph glyph-name="multiply" unicode="&#xd7;" horiz-adv-x="660" 
d="M430 425c0 -10 7 -24 17 -35l143 -143l-82 -82l-143 143c-11 11 -25 18 -35 18s-24 -7 -35 -18l-143 -143l-82 82l143 143c11 11 18 25 18 35c0 11 -7 25 -18 35l-143 143l82 82l143 -143c11 -11 25 -18 35 -17c10 -1 24 6 35 17l143 143l82 -82l-143 -143
c-10 -10 -17 -24 -17 -35z" />
    <glyph glyph-name="divide" unicode="&#xf7;" horiz-adv-x="660" 
d="M430 700c0 54 -36 90 -90 90s-90 -36 -90 -90s36 -90 90 -90s90 36 90 90zM580 368h-500v115h500v-115zM430 150c0 54 -36 90 -90 90s-90 -36 -90 -90s36 -90 90 -90s90 36 90 90z" />
    <glyph glyph-name="equal" unicode="=" horiz-adv-x="660" 
d="M580 528h-500v115h500v-115zM580 208h-500v115h500v-115z" />
    <glyph glyph-name="notequal" unicode="&#x2260;" horiz-adv-x="660" 
d="M279 643c30 0 55 17 63 47l43 160h119l-43 -160c-8 -30 7 -47 37 -47h82v-115h-113c-29 0 -54 -19 -62 -48l-30 -110c-8 -28 7 -47 38 -47h167v-115h-199c-30 0 -55 -19 -63 -48l-43 -160h-119l43 160c8 29 -7 48 -37 48h-82v115h114c29 0 54 19 62 47l30 110
c8 29 -7 48 -38 48h-168v115h199z" />
    <glyph glyph-name="greater" unicode="&#x3e;" horiz-adv-x="660" 
d="M80 620v125l500 -211v-218l-500 -211v125l335 141c21 10 35 30 35 54s-14 45 -35 54z" />
    <glyph glyph-name="less" unicode="&#x3c;" horiz-adv-x="660" 
d="M580 620l-334 -141c-22 -9 -36 -30 -36 -54s14 -44 36 -54l334 -141v-125l-500 211v218l500 211v-125z" />
    <glyph glyph-name="greaterequal" unicode="&#x2265;" horiz-adv-x="660" 
d="M80 710v125l500 -211v-218l-500 -211v125l335 141c21 10 35 30 35 54s-14 45 -35 54zM580 8h-500v115h500v-115z" />
    <glyph glyph-name="lessequal" unicode="&#x2264;" horiz-adv-x="660" 
d="M580 710l-334 -141c-22 -9 -36 -30 -36 -54s14 -44 36 -54l334 -141v-125l-500 211v218l500 211v-125zM80 8v115h500v-115h-500z" />
    <glyph glyph-name="plusminus" unicode="&#xb1;" horiz-adv-x="660" 
d="M438 603h142v-115h-142c-30 0 -50 -20 -50 -50v-143h-115v143c0 30 -20 50 -50 50h-143v115h143c30 0 50 20 50 50v142h115v-142c0 -30 20 -50 50 -50zM580 88h-500v115h500v-115z" />
    <glyph glyph-name="approxequal" unicode="&#x2248;" horiz-adv-x="705" 
d="M510 685h115v-65c0 -99 -66 -165 -165 -165s-165 66 -165 165c0 30 -20 50 -50 50s-50 -20 -50 -50v-65h-115v65c0 99 66 165 165 165s165 -66 165 -165c0 -30 20 -50 50 -50s50 20 50 50v65zM510 295h115v-65c0 -99 -66 -165 -165 -165s-165 66 -165 165
c0 30 -20 50 -50 50s-50 -20 -50 -50v-65h-115v65c0 99 66 165 165 165s165 -66 165 -165c0 -30 20 -50 50 -50s50 20 50 50v65z" />
    <glyph glyph-name="asciitilde" unicode="~" horiz-adv-x="705" 
d="M510 490h115v-65c0 -99 -66 -165 -165 -165s-165 66 -165 165c0 30 -20 50 -50 50s-50 -20 -50 -50v-65h-115v65c0 99 66 165 165 165s165 -66 165 -165c0 -30 20 -50 50 -50s50 20 50 50v65z" />
    <glyph glyph-name="asciicircum" unicode="^" horiz-adv-x="670" 
d="M453 860l167 -440h-123l-117 308c-8 19 -26 32 -45 32s-37 -13 -45 -32l-117 -308h-123l168 440h235z" />
    <glyph glyph-name="percent" unicode="%" horiz-adv-x="1300" 
d="M290 875c129 0 215 -86 215 -215v-100c0 -129 -86 -215 -215 -215s-215 86 -215 215v100c0 129 86 215 215 215zM664 860h116l-149 -860h-116zM290 460c60 0 100 40 100 100v100c0 60 -40 100 -100 100s-100 -40 -100 -100v-100c0 -60 40 -100 100 -100zM1010 515
c129 0 215 -86 215 -215v-100c0 -129 -86 -215 -215 -215s-215 86 -215 215v100c0 129 86 215 215 215zM1010 100c60 0 100 40 100 100v100c0 60 -40 100 -100 100s-100 -40 -100 -100v-100c0 -60 40 -100 100 -100z" />
    <glyph glyph-name="perthousand" unicode="&#x2030;" horiz-adv-x="1840" 
d="M290 875c129 0 215 -86 215 -215v-100c0 -129 -86 -215 -215 -215s-215 86 -215 215v100c0 129 86 215 215 215zM664 860h116l-149 -860h-116zM290 460c60 0 100 40 100 100v100c0 60 -40 100 -100 100s-100 -40 -100 -100v-100c0 -60 40 -100 100 -100zM1010 515
c129 0 215 -86 215 -215v-100c0 -129 -86 -215 -215 -215s-215 86 -215 215v100c0 129 86 215 215 215zM1550 515c129 0 215 -86 215 -215v-100c0 -129 -86 -215 -215 -215s-215 86 -215 215v100c0 129 86 215 215 215zM1010 100c60 0 100 40 100 100v100
c0 60 -40 100 -100 100s-100 -40 -100 -100v-100c0 -60 40 -100 100 -100zM1550 100c60 0 100 40 100 100v100c0 60 -40 100 -100 100s-100 -40 -100 -100v-100c0 -60 40 -100 100 -100z" />
    <glyph glyph-name="arrowup" unicode="&#x2191;" horiz-adv-x="1250" 
d="M65 340l350 520h421l349 -520h-155l-250 369c-9 13 -25 21 -40 21c-30 0 -50 -20 -50 -50v-910h-130v910c0 30 -20 50 -50 50c-15 0 -31 -8 -40 -21l-250 -369h-155z" />
    <glyph glyph-name="uni2197" unicode="&#x2197;" horiz-adv-x="1250" 
d="M1170 605v-605h-130v516c0 30 -20 50 -50 50c-13 0 -29 -7 -41 -18l-777 -778l-92 92l778 777c11 12 18 28 18 41c0 30 -20 50 -50 50h-516v130h605z" />
    <glyph glyph-name="arrowright" unicode="&#x2192;" horiz-adv-x="1250" 
d="M650 875l520 -349v-421l-520 -350v155l369 250c13 9 21 25 21 40c0 30 -20 50 -50 50h-910v130h910c30 0 50 20 50 50c0 15 -8 31 -21 40l-369 250v155z" />
    <glyph glyph-name="uni2198" unicode="&#x2198;" horiz-adv-x="1250" 
d="M1170 25l-255 -255h-605v130h516c30 0 50 20 50 50c0 13 -7 29 -18 41l-778 777l92 92l777 -777c12 -12 28 -19 41 -19c30 0 50 20 50 50v516h130v-605z" />
    <glyph glyph-name="arrowdown" unicode="&#x2193;" horiz-adv-x="1250" 
d="M1185 290l-349 -520h-421l-350 520h155l250 -369c9 -13 25 -21 40 -21c30 0 50 20 50 50v910h130v-910c0 -30 20 -50 50 -50c15 0 31 8 40 21l250 369h155z" />
    <glyph glyph-name="uni2199" unicode="&#x2199;" horiz-adv-x="1250" 
d="M80 25v605h130v-516c0 -30 20 -50 50 -50c13 0 30 7 41 19l777 777l92 -92l-777 -777c-12 -12 -19 -28 -19 -41c0 -30 20 -50 50 -50h516v-130h-605z" />
    <glyph glyph-name="arrowleft" unicode="&#x2190;" horiz-adv-x="1250" 
d="M600 -245l-520 350v421l520 349v-155l-369 -250c-12 -9 -21 -25 -21 -40c0 -30 20 -50 50 -50h910v-130h-910c-30 0 -50 -20 -50 -50c0 -15 9 -31 21 -40l369 -250v-155z" />
    <glyph glyph-name="uni2196" unicode="&#x2196;" horiz-adv-x="1250" 
d="M80 605l255 255h605v-130h-516c-30 0 -50 -20 -50 -50c0 -13 7 -29 19 -41l777 -777l-92 -92l-777 778c-11 11 -28 18 -41 18c-30 0 -50 -20 -50 -50v-516h-130v605z" />
    <glyph glyph-name="uni21C4" unicode="&#x21c4;" horiz-adv-x="1250" 
d="M828 875l342 -229v-421l-342 -230v155l189 129c14 9 23 26 23 41c0 30 -20 50 -50 50h-488v130h488c30 0 50 20 50 49c0 16 -9 32 -23 41l-189 130v155zM422 -245l-342 229v422l342 229v-155l-189 -129c-13 -9 -23 -26 -23 -41c0 -30 20 -50 50 -50h488v-130h-488
c-30 0 -50 -20 -50 -50c0 -15 10 -32 23 -41l189 -129v-155z" />
    <glyph glyph-name="uni21C5" unicode="&#x21c5;" horiz-adv-x="1250" 
d="M65 518l230 342h421l229 -342h-155l-129 189c-9 14 -26 23 -41 23c-30 0 -50 -20 -50 -50v-488h-130v488c0 30 -20 50 -49 50c-16 0 -32 -9 -41 -23l-130 -189h-155zM1185 112l-229 -342h-421l-230 342h155l129 -189c9 -14 26 -23 41 -23c30 0 50 20 50 50v488h130v-488
c0 -30 20 -50 50 -50c15 0 32 9 41 23l129 189h155z" />
    <glyph glyph-name="uni21C6" unicode="&#x21c6;" horiz-adv-x="1250" 
d="M422 875v-155l-189 -130c-13 -9 -23 -25 -23 -41c0 -29 20 -49 50 -49h488v-130h-488c-30 0 -50 -20 -50 -50c0 -15 10 -32 23 -41l189 -129v-155l-342 230v421zM828 -245v155l189 129c14 9 23 26 23 41c0 30 -20 50 -50 50h-488v130h488c30 0 50 20 50 50
c0 15 -9 32 -23 41l-189 129v155l342 -229v-422z" />
    <glyph glyph-name="at" unicode="@" horiz-adv-x="1110" 
d="M555 625c135 0 225 -90 225 -225v-212c0 -41 27 -68 68 -68c40 0 67 27 67 68v212c0 216 -144 360 -360 360s-360 -144 -360 -360v-155c0 -216 144 -360 360 -360h405v-115h-405c-285 0 -475 190 -475 475v155c0 285 190 475 475 475s475 -190 475 -475v-212
c0 -101 -73 -168 -182 -168h-293c-135 0 -225 90 -225 225v155c0 135 90 225 225 225zM665 245v155c0 66 -44 110 -110 110s-110 -44 -110 -110v-155c0 -66 44 -110 110 -110s110 44 110 110z" />
    <glyph glyph-name="ampersand" unicode="&#x26;" horiz-adv-x="1148" 
d="M885 380c-57 0 -95 -38 -95 -95v-57c0 -59 38 -98 95 -98h223v-130h-813c-153 0 -255 102 -255 255s102 255 255 255v350h480v-240c0 -66 44 -110 110 -110h223v-130h-223zM535 495c75 0 125 50 125 125s-50 125 -125 125s-125 -50 -125 -125s50 -125 125 -125zM535 130
c75 0 125 50 125 125s-50 125 -125 125h-240c-75 0 -125 -50 -125 -125s50 -125 125 -125h240z" />
    <glyph glyph-name="paragraph" unicode="&#xb6;" horiz-adv-x="750" 
d="M660 860v-1090h-115v915c0 36 -24 60 -60 60s-60 -24 -60 -60v-915h-115v650c0 36 -24 60 -60 60c-114 0 -190 76 -190 190s76 190 190 190h410z" />
    <glyph glyph-name="section" unicode="&#xa7;" horiz-adv-x="1015" 
d="M728 226c136 0 227 -91 227 -228c0 -136 -91 -227 -227 -227h-440v130h440c58 0 97 39 97 97c0 59 -39 98 -97 98h-440v310c-137 0 -228 91 -228 228c0 136 91 227 228 227h440v-130h-440c-59 0 -98 -39 -98 -97c0 -59 39 -98 98 -98h440v-310zM508 421
c-63 0 -105 -42 -105 -105s42 -105 105 -105s105 42 105 105s-42 105 -105 105z" />
    <glyph glyph-name="copyright" unicode="&#xa9;" horiz-adv-x="1110" 
d="M555 875c285 0 475 -190 475 -475v-170c0 -285 -190 -475 -475 -475s-475 190 -475 475v170c0 285 190 475 475 475zM915 230v170c0 216 -144 360 -360 360s-360 -144 -360 -360v-170c0 -216 144 -360 360 -360s360 144 360 360zM555 510c-66 0 -110 -44 -110 -110v-170
c0 -66 44 -110 110 -110s110 44 110 110h115c0 -135 -90 -225 -225 -225s-225 90 -225 225v170c0 135 90 225 225 225s225 -90 225 -225h-115c0 66 -44 110 -110 110z" />
    <glyph glyph-name="registered" unicode="&#xae;" horiz-adv-x="1220" 
d="M520 875c366 0 610 -244 610 -610v-245c0 -150 -98 -250 -247 -250h-546c-148 0 -247 100 -247 250v425c0 258 172 430 430 430zM1015 22v243c0 297 -198 495 -495 495c-189 0 -315 -126 -315 -315v-425c0 -81 53 -135 132 -135h546c80 0 132 55 132 137zM700 380
c108 0 180 -72 180 -180v-180h-115v180c0 39 -26 65 -65 65h-180c-39 0 -65 -26 -65 -65v-180h-115v425c0 108 72 180 180 180s180 -72 180 -180v-65zM520 365c48 0 80 32 80 80s-32 80 -80 80s-80 -32 -80 -80s32 -80 80 -80z" />
    <glyph glyph-name="trademark" unicode="&#x2122;" horiz-adv-x="1553" 
d="M550 860v-115h-140c-36 0 -60 -24 -60 -60v-400h-115v400c0 36 -24 60 -60 60h-140v115h515zM1473 860v-575h-115v415c0 36 -24 60 -60 60s-60 -24 -60 -60v-415h-350v415c0 36 -24 60 -60 60s-60 -24 -60 -60v-415h-115v575h350v-415c0 -36 24 -60 60 -60s60 24 60 60
v415h350z" />
    <glyph glyph-name="degree" unicode="&#xb0;" horiz-adv-x="580" 
d="M290 875c129 0 215 -86 215 -215v-100c0 -129 -86 -215 -215 -215s-215 86 -215 215v100c0 129 86 215 215 215zM290 460c60 0 100 40 100 100v100c0 60 -40 100 -100 100s-100 -40 -100 -100v-100c0 -60 40 -100 100 -100z" />
    <glyph glyph-name="bar" unicode="|" horiz-adv-x="295" 
d="M205 860v-1090h-115v1090h115z" />
    <glyph glyph-name="brokenbar" unicode="&#xa6;" horiz-adv-x="295" 
d="M205 860v-460h-115v460h115zM205 230v-460h-115v460h115z" />
    <glyph glyph-name="dagger" unicode="&#x2020;" horiz-adv-x="715" 
d="M465 600h170v-115h-170c-30 0 -50 -20 -50 -50v-665h-115v665c0 30 -20 50 -50 50h-170v115h170c30 0 50 20 50 50v210h115v-210c0 -30 20 -50 50 -50z" />
    <glyph glyph-name="daggerdbl" unicode="&#x2021;" horiz-adv-x="715" 
d="M465 485c-30 0 -50 -20 -50 -50v-240c0 -30 20 -50 50 -50h170v-115h-170c-30 0 -50 -20 -50 -50v-210h-115v210c0 30 -20 50 -50 50h-170v115h170c30 0 50 20 50 50v240c0 30 -20 50 -50 50h-170v115h170c30 0 50 20 50 50v210h115v-210c0 -30 20 -50 50 -50h170v-115
h-170z" />
    <glyph glyph-name="uni0326" unicode="&#x326;" horiz-adv-x="0" 
d="M-445 -75h115v-50c0 -111 -74 -185 -185 -185h-110v115h110c42 0 70 28 70 70v50z" />
    <glyph glyph-name="acute" unicode="&#xb4;" horiz-adv-x="600" 
d="M265 940h115v-50c0 -111 -74 -185 -185 -185h-110v115h110c42 0 70 28 70 70v50z" />
    <glyph glyph-name="breve" unicode="&#x2d8;" horiz-adv-x="600" 
d="M360 860h115c0 -102 -68 -170 -170 -170s-170 68 -170 170h115c0 -33 22 -55 55 -55s55 22 55 55z" />
    <glyph glyph-name="caron" unicode="&#x2c7;" horiz-adv-x="550" 
d="M388 705h-236l-67 235h120l33 -112c3 -14 16 -23 32 -23s29 9 33 23l32 112h120z" />
    <glyph glyph-name="caron_Slovak" unicode="&#x30c;" horiz-adv-x="455" 
d="M340 940h115v-235h-115v235z" />
    <glyph glyph-name="cedilla" unicode="&#xb8;" horiz-adv-x="600" 
d="M248 -3h115v-227h-220v115h60c27 0 45 18 45 45v67z" />
    <glyph glyph-name="circumflex" unicode="&#x2c6;" horiz-adv-x="550" 
d="M388 940l67 -235h-120l-32 113c-4 13 -17 22 -33 22s-29 -9 -32 -22l-33 -113h-120l67 235h236z" />
    <glyph glyph-name="dieresis" unicode="&#xa8;" horiz-adv-x="510" 
d="M220 860v-120h-150v120h150zM460 860v-120h-150v120h150z" />
    <glyph glyph-name="dotaccent" unicode="&#x2d9;" horiz-adv-x="290" 
d="M220 860v-120h-150v120h150z" />
    <glyph glyph-name="grave" unicode="`" horiz-adv-x="600" 
d="M185 940v-50c0 -42 28 -70 70 -70h110v-115h-110c-111 0 -185 74 -185 185v50h115z" />
    <glyph glyph-name="hungarumlaut" unicode="&#x2dd;" horiz-adv-x="600" 
d="M265 940h115v-50c0 -111 -74 -185 -185 -185h-110v115h110c42 0 70 28 70 70v50zM455 940h115v-235h-115v235z" />
    <glyph glyph-name="macron" unicode="&#xaf;" horiz-adv-x="600" 
d="M525 725h-400v115h400v-115z" />
    <glyph glyph-name="ogonek" unicode="&#x2db;" horiz-adv-x="600" 
d="M223 -3v-67c0 -27 18 -45 45 -45h60v-115h-220v227h115z" />
    <glyph glyph-name="ring" unicode="&#x2da;" horiz-adv-x="600" 
d="M313 1000c93 0 155 -62 155 -155s-62 -155 -155 -155s-155 62 -155 155s62 155 155 155zM313 893c-29 0 -48 -19 -48 -48c0 -28 19 -47 48 -47c28 0 47 19 47 47c0 29 -19 48 -47 48z" />
    <glyph glyph-name="tilde" unicode="&#x2dc;" horiz-adv-x="614" 
d="M508 940h115v-97c0 -92 -61 -153 -153 -153c-91 0 -152 61 -152 153v5c0 22 -15 37 -38 37c-22 0 -37 -15 -37 -37v-143h-115v143c0 91 61 152 152 152c92 0 153 -61 153 -152v-5c0 -23 15 -38 37 -38c23 0 38 15 38 38v97z" />
    </font>
</defs>
</svg>
